<?xml version="1.0" encoding="UTF-8"?>
<svg xmlns="http://www.w3.org/2000/svg" xmlns:xlink="http://www.w3.org/1999/xlink" width="50px" height="px" viewBox="0 0 50 50" version="1.1">
<g id="surface1">
<path style=" stroke:none;fill-rule:nonzero;fill:rgb(0%,0%,0%);fill-opacity:1;" d="M 40.144531 21.535156 C 39.453125 21.535156 38.890625 22.097656 38.890625 22.792969 L 38.890625 43.277344 L 35.269531 43.277344 L 28.320312 28.816406 C 29.3125 27.695312 29.734375 26.140625 29.410156 24.648438 C 29.109375 23.15625 28.109375 21.898438 26.726562 21.265625 L 26.726562 19.570312 C 26.75 18.972656 26.429688 18.367188 25.882812 18.027344 C 25.59375 17.855469 25.28125 17.773438 24.964844 17.773438 C 24.648438 17.773438 24.339844 17.855469 24.066406 18.019531 C 23.503906 18.367188 23.183594 18.972656 23.207031 19.613281 L 23.207031 21.117188 C 21.09375 21.878906 19.746094 24.066406 20.109375 26.367188 C 20.257812 27.3125 20.6875 28.191406 21.34375 28.886719 L 14.65625 43.277344 L 8.527344 43.277344 C 6.246094 43.261719 4.402344 41.410156 4.394531 39.128906 L 4.394531 10.449219 C 4.382812 12.746094 6.234375 14.617188 8.53125 14.628906 C 8.625 14.628906 8.714844 14.628906 8.808594 14.621094 L 39.527344 14.621094 C 39.527344 14.621094 44.808594 14.164062 45.488281 17.828125 C 44.972656 17.886719 44.5625 18.3125 44.5625 18.847656 C 44.5625 20.328125 43.355469 21.535156 41.847656 21.535156 Z M 35.878906 46.953125 C 36.367188 47.957031 35.949219 49.171875 34.941406 49.660156 C 34.671875 49.792969 34.386719 49.847656 34.101562 49.855469 C 33.878906 49.859375 33.652344 49.828125 33.4375 49.757812 C 33.386719 49.742188 33.34375 49.714844 33.292969 49.695312 C 33.125 49.625 32.964844 49.535156 32.820312 49.421875 C 32.765625 49.378906 32.714844 49.339844 32.667969 49.296875 C 32.496094 49.132812 32.339844 48.949219 32.230469 48.722656 L 29.613281 43.273438 L 26.367188 36.515625 C 26.101562 35.949219 25.535156 35.589844 24.910156 35.589844 L 24.90625 35.589844 C 24.277344 35.589844 23.707031 35.949219 23.429688 36.515625 L 20.28125 43.273438 L 17.714844 48.789062 C 17.421875 49.464844 16.785156 49.925781 16.050781 49.996094 C 15.921875 50.007812 15.792969 49.992188 15.667969 49.976562 C 15.59375 49.96875 15.523438 49.964844 15.453125 49.953125 C 15.351562 49.929688 15.253906 49.894531 15.15625 49.859375 C 15.09375 49.835938 15.03125 49.816406 14.96875 49.785156 C 14.867188 49.734375 14.773438 49.667969 14.679688 49.601562 C 14.632812 49.570312 14.582031 49.542969 14.539062 49.507812 C 14.40625 49.394531 14.289062 49.265625 14.1875 49.125 C 13.769531 48.515625 13.714844 47.730469 14.039062 47.070312 L 15.804688 43.273438 L 22.613281 28.625 C 21.820312 28.042969 21.292969 27.171875 21.136719 26.203125 C 20.816406 24.160156 22.207031 22.242188 24.25 21.917969 L 24.25 19.570312 C 24.238281 19.304688 24.371094 19.054688 24.597656 18.914062 C 24.824219 18.78125 25.109375 18.78125 25.335938 18.914062 C 25.5625 19.054688 25.695312 19.304688 25.683594 19.570312 L 25.683594 21.988281 L 25.710938 22 C 27.074219 22.375 28.109375 23.484375 28.394531 24.871094 C 28.695312 26.265625 28.175781 27.707031 27.050781 28.585938 L 34.113281 43.277344 Z M 27.050781 25.636719 C 27.058594 24.371094 26.039062 23.335938 24.773438 23.328125 C 24.160156 23.328125 23.570312 23.570312 23.136719 24 C 22.707031 24.425781 22.464844 25.003906 22.460938 25.605469 C 22.453125 26.875 23.472656 27.90625 24.742188 27.914062 L 24.757812 27.914062 C 26.015625 27.914062 27.042969 26.898438 27.050781 25.636719 Z M 24.910156 36.628906 C 24.675781 36.632812 24.46875 36.761719 24.375 36.953125 L 21.433594 43.277344 L 28.460938 43.277344 L 25.425781 36.957031 C 25.332031 36.757812 25.128906 36.632812 24.910156 36.628906 Z M 41.875 22.578125 L 40.144531 22.578125 C 40.027344 22.578125 39.929688 22.671875 39.929688 22.792969 L 39.929688 49.6875 C 39.929688 49.800781 40.019531 49.894531 40.132812 49.902344 L 41.890625 49.902344 C 43.945312 49.894531 45.605469 48.226562 45.605469 46.171875 L 45.605469 18.847656 C 45.605469 20.90625 43.933594 22.578125 41.875 22.578125 Z M 5.4375 10.449219 L 5.4375 10.488281 C 5.445312 12.191406 6.835938 13.578125 8.535156 13.585938 C 8.625 13.585938 8.71875 13.582031 8.808594 13.582031 L 11.160156 13.582031 C 11.570312 10.839844 12.746094 8.320312 14.574219 6.316406 L 8.539062 6.316406 C 6.609375 6.324219 5.003906 7.652344 4.542969 9.4375 C 5.046875 9.511719 5.4375 9.925781 5.4375 10.449219 Z M 18.640625 4.414062 L 16.480469 0.683594 C 16.398438 0.542969 16.398438 0.371094 16.480469 0.226562 C 16.566406 0.09375 16.710938 0.0078125 16.871094 0 C 17.03125 0.00390625 17.179688 0.0898438 17.261719 0.226562 L 19.445312 4.011719 C 22.96875 2.429688 27.003906 2.429688 30.527344 4.011719 L 32.699219 0.226562 C 32.84375 0.0546875 33.089844 0.0078125 33.285156 0.121094 C 33.480469 0.234375 33.5625 0.472656 33.476562 0.683594 L 31.332031 4.414062 C 34.804688 6.3125 37.160156 9.714844 37.785156 13.582031 L 12.1875 13.582031 C 12.816406 9.710938 15.167969 6.3125 18.640625 4.414062 Z M 29.84375 9.871094 C 29.859375 10.464844 30.351562 10.933594 30.941406 10.917969 C 31.535156 10.917969 32.015625 10.4375 32.015625 9.847656 C 32.011719 9.410156 31.75 9.015625 31.34375 8.847656 C 30.941406 8.683594 30.476562 8.773438 30.164062 9.082031 C 29.953125 9.289062 29.835938 9.574219 29.84375 9.871094 Z M 17.933594 9.859375 C 17.9375 10.449219 18.425781 10.925781 19.015625 10.917969 C 19.304688 10.925781 19.578125 10.8125 19.78125 10.609375 C 20.101562 10.347656 20.242188 9.925781 20.148438 9.523438 C 20.054688 9.121094 19.742188 8.808594 19.339844 8.714844 C 18.9375 8.621094 18.515625 8.761719 18.253906 9.082031 C 18.042969 9.285156 17.929688 9.566406 17.933594 9.859375 Z M 17.933594 9.859375 "/>
</g>
</svg>
