<?xml version="1.0" encoding="UTF-8"?>
<svg xmlns="http://www.w3.org/2000/svg" xmlns:xlink="http://www.w3.org/1999/xlink" width="50px" height="px" viewBox="0 0 50 50" version="1.1">
<g id="surface1">
<path style=" stroke:none;fill-rule:nonzero;fill:rgb(0%,0%,0%);fill-opacity:1;" d="M 24.519531 23.417969 L 20.742188 23.417969 L 20.742188 17.085938 L 25.226562 17.085938 C 27.664062 17.085938 29.046875 18.175781 29.046875 20.140625 C 29.046875 22.242188 27.433594 23.417969 24.515625 23.417969 Z M 25.195312 25.929688 L 20.742188 25.929688 L 20.742188 32.902344 L 25.390625 32.902344 C 28.429688 32.902344 30.042969 31.683594 30.042969 29.394531 C 30.042969 27.101562 28.386719 25.929688 25.195312 25.929688 Z M 50 23.730469 L 50 26.265625 C 47.648438 26.492188 46.214844 28.234375 45.363281 30.992188 C 44.515625 33.738281 44.398438 37.109375 44.488281 39.710938 C 44.582031 42.421875 42.472656 44.921875 39.617188 44.921875 L 10.386719 44.921875 C 7.53125 44.921875 5.421875 42.421875 5.515625 39.710938 C 5.605469 37.109375 5.488281 33.738281 4.640625 30.992188 C 3.789062 28.234375 2.351562 26.492188 0 26.265625 L 0 23.730469 C 2.351562 23.503906 3.789062 21.761719 4.640625 19.003906 C 5.488281 16.257812 5.605469 12.886719 5.515625 10.285156 C 5.421875 7.574219 7.53125 5.074219 10.386719 5.074219 L 39.617188 5.074219 C 42.472656 5.074219 44.582031 7.574219 44.488281 10.285156 C 44.398438 12.886719 44.515625 16.257812 45.363281 19.003906 C 46.214844 21.761719 47.648438 23.503906 50 23.730469 Z M 33.484375 29.597656 C 33.484375 26.777344 31.5 24.738281 28.550781 24.414062 L 28.550781 24.296875 C 30.71875 23.945312 32.417969 21.929688 32.417969 19.683594 C 32.417969 16.484375 29.890625 14.398438 26.039062 14.398438 L 17.371094 14.398438 L 17.371094 35.589844 L 26.082031 35.589844 C 30.703125 35.589844 33.484375 33.328125 33.484375 29.597656 Z M 33.484375 29.597656 "/>
</g>
</svg>
