<?xml version="1.0" encoding="UTF-8"?>
<svg xmlns="http://www.w3.org/2000/svg" xmlns:xlink="http://www.w3.org/1999/xlink" width="50px" height="px" viewBox="0 0 50 50" version="1.1">
<g id="surface1">
<path style=" stroke:none;fill-rule:nonzero;fill:rgb(0%,0%,0%);fill-opacity:1;" d="M 25.082031 0 C 11.265625 -0.0429688 0.0117188 11.1875 0.0117188 24.984375 L 9.671875 24.984375 C 9.671875 14.726562 19.84375 6.792969 30.640625 10.703125 C 32.003906 18.15625 27.390625 25.40625 20.058594 27.320312 C 12.726562 29.238281 5.15625 25.171875 2.699219 18.003906 C 0.242188 10.832031 3.734375 2.980469 10.703125 0 C 14.636719 10.785156 6.695312 20.949219 -3.546875 20.964844 L -3.546875 11.363281 L 15.398438 11.363281 L 15.398438 20.992188 L 25.003906 20.992188 L 25.003906 50 C 41.378906 50 54.101562 34.191406 48.746094 17.019531 C 46.421875 9.542969 40.445312 3.589844 32.964844 1.238281 C 42.472656 -5.246094 46.746094 -17.09375 43.570312 -28.152344 C 40.390625 -39.214844 30.476562 -46.988281 18.980469 -47.4375 C 7.480469 -47.886719 -3.007812 -40.910156 -7.039062 -30.132812 C -11.070312 -19.355469 -7.730469 -7.207031 1.238281 0 Z M 15.394531 40.335938 L 7.976562 40.335938 L 7.976562 47.761719 L 15.394531 47.761719 Z M 7.972656 40.335938 L 7.972656 34.132812 L 1.769531 34.132812 L 1.769531 40.335938 Z M 7.972656 40.335938 "/>
</g>
</svg>
