<?xml version="1.0" encoding="UTF-8"?>
<svg xmlns="http://www.w3.org/2000/svg" xmlns:xlink="http://www.w3.org/1999/xlink" width="50px" height="px" viewBox="0 0 50 50" version="1.1">
<g id="surface1">
<path style=" stroke:none;fill-rule:nonzero;fill:rgb(0%,0%,0%);fill-opacity:1;" d="M 29.132812 23.078125 L 33.546875 23.078125 C 27.171875 32.34375 14.496094 34.6875 5.234375 28.3125 C -4.03125 21.9375 -6.375 9.261719 0 0 L 0 18.761719 C -5.179688 18.871094 -9.46875 14.757812 -9.574219 9.574219 C -9.683594 4.394531 -5.570312 0.105469 -0.386719 0 L -4.800781 0 C -4.683594 -0.0703125 -4.535156 -0.0703125 -4.417969 0 L -4.417969 3.933594 C -4.417969 4.144531 -4.242188 4.320312 -4.03125 4.320312 M -10.183594 -6.992188 L -5.773438 -6.992188 C -3.839844 -9.78125 -0.015625 -10.472656 2.769531 -8.542969 C 5.554688 -6.613281 6.25 -2.785156 4.320312 0 L 4.320312 7.445312 C 2.261719 7.550781 0.507812 5.972656 0.402344 3.914062 C 0.296875 1.859375 1.878906 0.105469 3.933594 0 L -0.480469 0 C -0.359375 -0.0703125 -0.214844 -0.0703125 -0.09375 0 L -0.09375 3.933594 C -0.09375 4.144531 0.078125 4.320312 0.292969 4.320312 M 0.292969 9.976562 L 4.703125 9.976562 C 1.949219 10.082031 -0.371094 7.9375 -0.476562 5.179688 C -0.582031 2.425781 1.5625 0.105469 4.320312 0 L 4.320312 13.105469 C 0.699219 13.210938 -2.320312 10.363281 -2.425781 6.746094 C -2.53125 3.125 0.316406 0.105469 3.933594 0 L -0.480469 0 C -0.359375 -0.0703125 -0.214844 -0.0703125 -0.09375 0 L -0.09375 3.929688 C -0.09375 4.144531 0.078125 4.316406 0.292969 4.320312 M -5.8125 4.320312 L -1.394531 4.320312 C -2.589844 2.742188 -2.277344 0.496094 -0.699219 -0.699219 C 0.878906 -1.890625 3.125 -1.578125 4.320312 0 L 4.320312 13.105469 C 0.699219 13.210938 -2.320312 10.363281 -2.425781 6.746094 C -2.53125 3.125 0.316406 0.105469 3.933594 0 L 16.875 0 C 16.996094 -0.0703125 17.140625 -0.0703125 17.261719 0 L 17.261719 3.929688 C 17.261719 4.144531 17.433594 4.316406 17.644531 4.320312 M 11.472656 4.320312 L 15.886719 4.320312 C 14.691406 7.511719 11.136719 9.136719 7.941406 7.941406 C 4.75 6.75 3.125 3.195312 4.320312 0 L 4.320312 13.105469 C 0.699219 13.210938 -2.320312 10.363281 -2.425781 6.746094 C -2.53125 3.125 0.316406 0.105469 3.933594 0 L 10.699219 0 C 10.820312 -0.0703125 10.964844 -0.0703125 11.085938 0 L 11.085938 3.929688 C 11.085938 4.144531 11.261719 4.316406 11.472656 4.320312 M 23.75 9.976562 L 28.164062 9.976562 C 25.40625 16.558594 17.835938 19.664062 11.253906 16.910156 C 4.667969 14.15625 1.5625 6.585938 4.320312 0 L 4.320312 18.761719 C -0.863281 18.871094 -5.148438 14.757812 -5.257812 9.574219 C -5.363281 4.394531 -1.25 0.105469 3.929688 0 L -0.480469 0 C -0.363281 -0.0703125 -0.214844 -0.0703125 -0.0976562 0 L -0.0976562 3.933594 C -0.0976562 4.144531 0.0742188 4.320312 0.289062 4.320312 M -5.816406 4.320312 L -1.398438 4.320312 C -2.589844 2.738281 -2.277344 0.492188 -0.699219 -0.699219 C 0.878906 -1.890625 3.125 -1.578125 4.320312 0 L 4.320312 18.761719 C -0.863281 18.871094 -5.148438 14.757812 -5.257812 9.574219 C -5.363281 4.394531 -1.25 0.105469 3.929688 0 L -0.484375 0 C -0.367188 -0.0703125 -0.21875 -0.0703125 -0.101562 0 L -0.101562 3.933594 C -0.101562 4.144531 0.0742188 4.320312 0.285156 4.320312 M -5.890625 4.320312 L -1.476562 4.320312 C -2.667969 2.71875 -2.335938 0.457031 -0.738281 -0.738281 C 0.863281 -1.929688 3.125 -1.601562 4.320312 0 L 4.320312 18.761719 C -0.863281 18.871094 -5.148438 14.757812 -5.257812 9.574219 C -5.363281 4.394531 -1.25 0.105469 3.929688 0 L -0.484375 0 C -0.367188 -0.0703125 -0.21875 -0.0703125 -0.0976562 0 L -0.0976562 3.929688 C -0.0976562 4.144531 0.078125 4.316406 0.289062 4.316406 M -5.792969 4.316406 L -1.378906 4.316406 C -2.570312 2.746094 -2.261719 0.503906 -0.6875 -0.6875 C 0.882812 -1.878906 3.125 -1.574219 4.316406 0 L 4.316406 18.761719 C -0.863281 18.871094 -5.152344 14.757812 -5.257812 9.574219 C -5.367188 4.394531 -1.253906 0.105469 3.929688 0 L -0.488281 0 C -0.367188 -0.0703125 -0.222656 -0.0703125 -0.101562 0 L -0.101562 3.933594 C -0.101562 4.144531 0.0703125 4.320312 0.285156 4.320312 M 49.507812 20.605469 C 49.371094 20.496094 48.105469 19.542969 45.433594 19.542969 C 44.730469 19.542969 44.027344 19.605469 43.332031 19.722656 C 42.816406 16.179688 39.886719 14.453125 39.757812 14.378906 L 39.039062 13.960938 L 38.570312 14.644531 C 37.976562 15.554688 37.546875 16.566406 37.292969 17.621094 C 36.816406 19.644531 37.105469 21.542969 38.132812 23.167969 C 36.894531 23.859375 34.902344 24.027344 34.5 24.042969 L 1.566406 24.042969 C 8.109375 23.613281 13.761719 28.566406 14.195312 35.113281 C 14.625 41.65625 9.667969 47.3125 3.121094 47.742188 C 4.257812 50.714844 5.945312 52.910156 8.144531 54.25 C 10.601562 55.757812 14.601562 56.617188 19.132812 56.617188 C 21.179688 56.625 23.222656 56.441406 25.238281 56.066406 C 15.316406 51.722656 9.210938 41.59375 10.015625 30.792969 C 10.820312 19.992188 18.355469 10.875 28.8125 8.050781 C 39.269531 5.230469 50.367188 9.3125 56.496094 18.242188 C 62.628906 27.171875 62.453125 38.996094 56.066406 47.742188 C 58.105469 46.558594 59.941406 45.058594 61.503906 43.292969 C 64.109375 40.335938 65.664062 37.046875 66.820312 34.125 L 67.28125 34.125 C 70.140625 34.125 71.894531 32.980469 72.863281 32.023438 C 73.507812 31.414062 74.011719 30.667969 74.335938 29.84375 L 74.542969 29.242188 Z M 49.507812 20.605469 "/>
</g>
</svg>
