<?xml version="1.0" encoding="UTF-8"?>
<svg xmlns="http://www.w3.org/2000/svg" xmlns:xlink="http://www.w3.org/1999/xlink" width="50px" height="px" viewBox="0 0 50 50" version="1.1">
<g id="surface1">
<path style=" stroke:none;fill-rule:nonzero;fill:rgb(0%,0%,0%);fill-opacity:1;" d="M 8.105469 32.648438 L 13.03125 0.960938 C 12.765625 4.558594 9.632812 7.261719 6.035156 6.996094 C 2.4375 6.730469 -0.265625 3.597656 0 0 L 5.296875 9.941406 Z M 43.089844 40.339844 L 38.402344 11.175781 C 35.316406 11.34375 32.679688 8.980469 32.507812 5.894531 C 32.339844 2.808594 34.703125 0.167969 37.789062 0 L 6.910156 40.34375 L 23.273438 49.566406 C 36.960938 53.574219 51.308594 45.726562 55.316406 32.039062 C 59.324219 18.351562 51.476562 4.007812 37.789062 0 Z M 29.792969 14.890625 L 26 7.636719 C 23.890625 7.636719 22.183594 5.925781 22.183594 3.816406 C 22.183594 1.710938 23.890625 0 26 0 L 7.355469 37.464844 Z M 29.792969 14.890625 "/>
</g>
</svg>
