<?xml version="1.0" encoding="UTF-8"?>
<svg xmlns="http://www.w3.org/2000/svg" xmlns:xlink="http://www.w3.org/1999/xlink" width="50px" height="px" viewBox="0 0 50 50" version="1.1">
<g id="surface1">
<path style=" stroke:none;fill-rule:nonzero;fill:rgb(0%,0%,0%);fill-opacity:1;" d="M 14.941406 42.417969 C 13.039062 40.917969 11.003906 39.480469 9.617188 37.457031 C 6.695312 33.890625 4.445312 29.761719 2.910156 25.421875 C 1.980469 22.601562 1.660156 19.574219 0.460938 16.859375 C -0.792969 14.894531 0.675781 12.738281 2.832031 12.109375 C 3.792969 11.929688 5.484375 11.023438 3.445312 11.671875 C 1.613281 13.011719 1.4375 10.453125 3.3125 10.292969 C 4.59375 10.121094 5.0625 9.074219 4.625 8.132812 C 3.25 7.234375 7.957031 6.25 5.589844 4.914062 C 3.125 2.25 9.042969 1.738281 7.582031 4.761719 C 7.234375 7.082031 11.714844 4.332031 10.675781 7.015625 C 11.734375 8.304688 14.636719 7.308594 14.5625 9.117188 C 16.105469 9.222656 16.632812 10.519531 18.078125 10.617188 C 19.578125 11.296875 22.289062 11.828125 22.796875 13.515625 C 21.3125 14.695312 17.871094 11.085938 17.707031 14.34375 C 18.15625 19.15625 18.042969 24.113281 19.800781 28.695312 C 20.632812 31.46875 22.652344 33.652344 24.476562 35.816406 C 26.21875 37.929688 28.582031 39.417969 30.988281 40.675781 C 33.101562 41.671875 35.378906 42.332031 37.683594 42.746094 C 38.617188 42.03125 40.265625 39.378906 41.722656 40.496094 C 41.789062 41.753906 38.828125 43.128906 41.582031 42.988281 C 43.199219 42.5 44.320312 44.238281 45.648438 42.671875 C 46.875 44.121094 50.746094 41.742188 49.871094 44.710938 C 48.695312 45.472656 46.972656 45.011719 45.792969 46.058594 C 43.84375 45.085938 42.292969 46.929688 40.136719 46.695312 C 29.703125 61.539062 10.816406 67.855469 -6.445312 62.273438 C -23.710938 56.691406 -35.324219 40.511719 -35.085938 22.371094 C -34.851562 4.230469 -22.824219 -11.644531 -5.425781 -16.777344 C 11.976562 -21.910156 30.695312 -15.109375 40.738281 0 C 36.757812 -0.3125 32.6875 -0.445312 28.898438 -1.832031 C 26.765625 -2.453125 24.683594 -3.667969 22.804688 -4.882812 Z M 18.304688 43.875 C 20.390625 44.773438 22.425781 45.726562 24.710938 46.011719 C 28.335938 46.511719 32.078125 47.292969 35.714844 46.582031 C 34.070312 45.839844 32.367188 46.875 30.726562 46.050781 C 28.761719 46.476562 26.648438 45.945312 24.648438 45.683594 C 22.375 44.671875 19.921875 43.976562 17.792969 42.660156 C 15.132812 41.6875 19.167969 43.902344 19.886719 44.085938 C 21.550781 45.027344 18.058594 43.601562 17.566406 43.207031 C 16.175781 42.425781 15.996094 42.589844 17.429688 43.382812 C 17.71875 43.550781 18.003906 43.730469 18.304688 43.871094 Z M 14.339844 41.070312 C 16.359375 41.820312 14.332031 39.648438 13.402344 39.773438 C 12.992188 39.066406 11.835938 38.613281 12.652344 38.234375 C 11.183594 38.742188 11.117188 36.296875 10.421875 36.644531 C 8.871094 36.152344 9.820312 34.414062 7.972656 33.351562 C 7.804688 32.226562 6.136719 31.253906 5.601562 29.554688 C 5.367188 28.691406 3.714844 26.195312 4.730469 28.515625 C 5.59375 30.746094 7.113281 32.660156 8.378906 34.570312 C 9.355469 36.390625 10.515625 38.292969 12.304688 39.425781 C 12.910156 40.003906 13.488281 40.890625 14.339844 41.070312 Z M 8.519531 34.679688 C 8.589844 34.378906 8.890625 35.339844 8.519531 34.679688 Z M 16.757812 41.964844 C 17.207031 41.765625 16.113281 41.714844 16.757812 41.964844 Z M 17.855469 42.367188 C 17.742188 41.816406 17.355469 42.675781 17.855469 42.367188 Z M 19.230469 42.941406 C 19.878906 42.316406 18.222656 42.546875 19.230469 42.941406 Z M 21.578125 44.253906 C 21.976562 43.664062 20.304688 44.027344 21.578125 44.253906 Z M 17.0625 41.101562 C 18.078125 40.445312 15.75 41.089844 17.0625 41.101562 Z M 18.089844 41.613281 C 18.0625 41.265625 17.726562 41.769531 18.089844 41.613281 Z M 23.238281 44.824219 C 24.066406 45.347656 28.070312 45.972656 25.558594 45.039062 C 25.144531 45.128906 20.914062 43.84375 23.234375 44.824219 Z M 15.070312 38.460938 C 14.984375 38.113281 13.785156 38.078125 15.070312 38.460938 Z M 17.464844 39.859375 C 18.089844 39.421875 16.171875 39.523438 17.464844 39.859375 Z M 19.476562 41.09375 C 20.371094 40.757812 18.027344 40.753906 19.476562 41.09375 Z M 14.09375 37.398438 C 15.066406 38.144531 18.011719 37.496094 15.582031 36.957031 C 14.476562 36.367188 11.984375 35.964844 13.679688 37.308594 Z M 20.84375 41.519531 C 21.246094 40.832031 19.144531 41.125 20.84375 41.519531 Z M 18.792969 39.890625 C 21.167969 40.5625 16.796875 38.390625 18.207031 39.644531 L 18.519531 39.785156 Z M 22.902344 42.265625 C 25.152344 42.285156 20.871094 41.957031 22.902344 42.265625 Z M 13.230469 36.097656 C 13.140625 35.679688 12.675781 36.136719 13.230469 36.097656 Z M 26.707031 44.398438 C 26.765625 43.644531 25.972656 44.960938 26.707031 44.398438 Z M 17.0625 38.449219 C 16.929688 38.050781 16.363281 38.433594 17.0625 38.449219 Z M 13.441406 35.835938 C 14.734375 35.761719 11.675781 35.269531 13.441406 35.835938 Z M 9.148438 33.0625 C 8.988281 32.445312 7.746094 31.949219 9.148438 33.0625 Z M 20.414062 40.21875 C 20.175781 39.949219 20.300781 40.277344 20.414062 40.21875 Z M 27.425781 44.519531 C 27.40625 44.109375 27.046875 44.675781 27.425781 44.519531 Z M 19.792969 39.578125 C 19.917969 39.046875 18.695312 39.417969 19.792969 39.578125 Z M 14.574219 36.261719 C 15.53125 36.15625 13.03125 35.613281 14.574219 36.261719 Z M 23.410156 41.753906 C 24.902344 41.160156 21.949219 41.460938 23.410156 41.753906 Z M 18.8125 38.636719 C 20.535156 38.855469 16.761719 37.460938 18.433594 38.511719 Z M 24.804688 42.320312 C 26.414062 41.355469 25.882812 44.574219 27.535156 42.589844 C 29.164062 41.402344 26.128906 44.0625 28.140625 42.804688 C 29.589844 41.832031 31.734375 43.261719 33.089844 43.730469 C 34.066406 43.683594 35.011719 44.574219 36.011719 44.035156 C 37.933594 43.511719 32.25 43.261719 33.742188 42.347656 C 31.980469 42.855469 30.679688 41.734375 29.816406 40.605469 C 27.839844 40.148438 25.554688 39.140625 24.570312 37.394531 C 24.171875 36.738281 25.152344 37.484375 24.226562 36.414062 C 23.039062 35.355469 22.441406 34.152344 21.640625 32.867188 C 20.691406 32.359375 20.578125 30.863281 20.480469 32.820312 C 20.488281 31.582031 19.328125 30.753906 19.046875 31.097656 C 19.042969 29.910156 20.289062 30.503906 19.414062 29.625 C 19.226562 28.390625 18.609375 27.105469 18.425781 25.714844 C 18.136719 25.042969 18.382812 23.609375 17.441406 25.128906 C 17.097656 26.730469 17.324219 23.152344 17.859375 24.335938 C 18.5625 23.128906 17.609375 23.273438 17.570312 23.441406 C 18.027344 22.421875 17.859375 20.980469 17.449219 21.53125 C 17.695312 20.453125 17.835938 17.570312 17.085938 18.082031 C 17.539062 16.957031 17.949219 12.929688 15.972656 14.464844 C 15.171875 14.476562 13.789062 14.757812 13.132812 15.082031 C 15.1875 16.210938 12.925781 15.488281 12.089844 15.308594 C 11.984375 16.355469 11.152344 15.902344 10.121094 15.914062 C 11.773438 16.117188 9.316406 17.601562 8.367188 17.027344 C 7.140625 17.613281 9.429688 19.082031 8.394531 19.539062 C 8.519531 20.222656 6.507812 19.289062 6.664062 20.871094 C 5.472656 20.367188 6.503906 22.746094 7.101562 21.941406 C 9.132812 22.492188 8.527344 23.746094 8.578125 24.933594 C 8.25 25.628906 6.945312 23.304688 8.289062 23.414062 C 7.230469 21.691406 7.117188 22.789062 6.238281 23.589844 C 6.027344 23.648438 8.484375 24.730469 6.945312 25.261719 C 8.300781 25.472656 8.335938 26.660156 8.613281 27.410156 C 9.425781 28.257812 9.257812 26.472656 10.234375 27.492188 C 9.617188 26.582031 6.972656 24.933594 9.101562 25.460938 C 9.089844 24.546875 8.714844 23.808594 9.371094 23.828125 C 10.015625 22.660156 8.695312 26.71875 10.152344 25.230469 C 10.554688 25.050781 10.652344 24.054688 11.382812 25.324219 C 12.433594 26.359375 11.761719 27.109375 10.273438 26.164062 C 10.539062 27.066406 12.261719 27.386719 11.941406 28.796875 C 12.285156 30.039062 12.761719 29.582031 13.179688 29.511719 C 13.511719 30.714844 13.695312 29.828125 13.710938 29.253906 C 15.210938 29.578125 14.863281 30.460938 15.332031 31.085938 C 16.367188 31.554688 13.851562 27.917969 15.628906 29.992188 C 17.5 31.679688 16.332031 32.386719 14.648438 32.117188 C 15.710938 32.03125 16.054688 33.554688 17.386719 33.5 C 18.597656 34.078125 19.417969 36.292969 17.328125 35.367188 C 16.605469 34.714844 14.039062 33.910156 16.136719 35.152344 C 18.070312 36.046875 19.605469 36.585938 21.472656 37.707031 C 22.804688 38.664062 23.382812 39.753906 23.886719 39.972656 C 22.765625 40.507812 20.507812 39.542969 22.183594 39.246094 C 21.136719 39.054688 19.960938 38.527344 20.960938 39.828125 C 21.816406 40.542969 23.984375 40.464844 24.371094 40.546875 C 24.042969 41.273438 23.476562 41.332031 24.386719 41.386719 C 23.371094 41.929688 24.710938 42.011719 24.804688 42.320312 Z M 22.734375 36.46875 C 22.117188 35.824219 21.957031 34.613281 22.621094 35.667969 C 22.964844 35.804688 23.714844 37.640625 22.734375 36.46875 Z M 29.480469 40.753906 C 29.863281 40.730469 29.492188 41.046875 29.480469 40.753906 Z M 21.757812 34.886719 C 21.738281 33.914062 21.980469 35.636719 21.757812 34.886719 Z M 21.085938 33.984375 C 20.3125 32.484375 22.066406 34.410156 21.085938 33.984375 Z M 12.960938 28.378906 C 13.417969 28.253906 13.1875 29.15625 12.960938 28.378906 Z M 19.429688 31.882812 C 19.707031 30.832031 19.757812 32.765625 19.429688 31.882812 Z M 14.863281 28.703125 C 14.539062 28.125 15.535156 29.246094 14.863281 28.703125 Z M 18.785156 29.960938 C 18.050781 28.316406 19.304688 29.0625 18.945312 30.234375 Z M 12.019531 25.453125 C 11.691406 24.910156 11.148438 23.328125 11.324219 22.84375 C 11.484375 23.632812 13 26.234375 12.070312 23.921875 C 11.039062 21.984375 13.296875 24.550781 13.53125 25.035156 C 13.636719 25.515625 12.894531 24.902344 13.398438 26.03125 C 12.480469 24.746094 12.855469 26.738281 12.019531 25.453125 Z M 9.929688 24.011719 C 10.015625 22.757812 10.410156 24.871094 9.929688 24.011719 Z M 10.867188 24.335938 C 11.320312 23.386719 11.632812 25.65625 10.867188 24.335938 Z M 8.609375 22.585938 C 7.832031 21.816406 7.269531 21.101562 8.644531 22.105469 C 9.175781 22.128906 7.464844 20.484375 8.769531 21.585938 C 10.144531 21.835938 9.453125 23.839844 8.609375 22.585938 Z M 9.796875 22.554688 C 10.25 22.105469 10.039062 22.996094 9.796875 22.554688 Z M 10.527344 22.789062 C 9.84375 21.503906 11.359375 23.328125 10.527344 22.789062 Z M 9.074219 21.398438 C 6.8125 19.386719 11.917969 22.453125 9.445312 21.773438 Z M 15.554688 25.167969 C 14.574219 24.578125 15.296875 21.035156 15.632812 23.457031 C 16.582031 23.148438 15.578125 24.707031 16.289062 24.695312 C 16.175781 25.679688 15.859375 26.035156 15.558594 25.167969 Z M 17.949219 26.582031 C 18.050781 25.515625 18.15625 27.3125 17.949219 26.582031 Z M 17.535156 26.171875 C 17.644531 25.710938 17.546875 26.707031 17.535156 26.171875 Z M 9.519531 20.738281 C 8.070312 18.734375 13.742188 22.765625 10.453125 21.246094 C 10.109375 21.160156 9.695312 21.121094 9.519531 20.738281 Z M 14.136719 23.1875 C 14 21.5 14.445312 23.464844 14.136719 23.1875 Z M 17.640625 25.433594 C 17.914062 24.472656 17.664062 26.070312 17.640625 25.433594 Z M 9.742188 19.972656 C 10.605469 19.789062 13.320312 21.492188 10.824219 20.460938 C 10.550781 20.152344 9.957031 20.292969 9.742188 19.972656 Z M 17.160156 23.671875 C 17.25 21.941406 17.675781 22.640625 17.164062 23.917969 Z M 10.386719 19.371094 C 10.738281 18.855469 9.449219 17.039062 10.570312 18.722656 C 11.054688 19.105469 11.972656 19.367188 11.160156 19.527344 C 12.429688 20.648438 10.847656 19.832031 10.386719 19.371094 Z M 16.792969 23.132812 C 17.035156 21.164062 17.007812 24.285156 16.792969 23.132812 Z M 9.648438 17.554688 C 9.917969 17.441406 9.792969 17.914062 9.648438 17.554688 Z M 11.320312 18.550781 C 11.75 17.648438 12.113281 19.558594 11.320312 18.550781 Z M 16.035156 21.175781 C 16.03125 20.828125 16.125 21.679688 16.035156 21.175781 Z M 15.761719 20.570312 C 15.109375 18.953125 16.371094 21.425781 15.761719 20.570312 Z M 15.359375 19.507812 C 15.25 18.839844 15.734375 20.351562 15.359375 19.507812 Z M 16.015625 18.445312 C 15.566406 17.652344 16.582031 14.960938 16.695312 16.632812 C 16.222656 17.933594 16.558594 18.664062 16.886719 16.917969 C 17.496094 15.542969 16.757812 19.632812 16.011719 18.449219 Z M 16.683594 14.441406 C 16.882812 14.199219 16.726562 14.730469 16.683594 14.441406 Z M 15.5625 36.550781 C 15.296875 36.320312 15.597656 36.695312 15.5625 36.550781 Z M 17.875 37.714844 C 19.15625 38.050781 19.148438 37.519531 17.988281 37.363281 C 17.363281 36.777344 15.394531 36.164062 17.15625 37.289062 C 17.273438 37.585938 17.644531 37.578125 17.871094 37.71875 Z M 13.308594 34.6875 C 14.019531 35.214844 15.976562 36.183594 14.320312 34.886719 C 14.878906 34.238281 13.246094 33.890625 13.789062 33.457031 C 12.414062 32.617188 12.707031 32.691406 13.667969 32.714844 C 12.015625 31.980469 13.90625 32.035156 13.816406 31.652344 C 13.179688 31.527344 10.648438 30.527344 12.140625 31.738281 C 10.628906 30.964844 11.777344 32.023438 11.324219 31.914062 C 9.773438 31.492188 12.699219 33.089844 11.078125 32.695312 C 11.960938 33.394531 13.464844 34.492188 11.453125 33.4375 C 11.183594 33.820312 12.890625 34.394531 13.308594 34.6875 Z M 15.726562 36.078125 C 18.664062 37.023438 14.289062 34.917969 15.726562 36.078125 Z M 28.101562 43.574219 C 28.144531 42.988281 27.699219 44.074219 28.101562 43.574219 Z M 29.375 44.109375 C 30.050781 43.453125 29.402344 45.15625 30.5 43.949219 C 30.511719 43.082031 30.464844 42.574219 29.238281 43.621094 C 28.898438 43.808594 28.75 44.609375 29.375 44.109375 Z M 9.183594 31.425781 C 8.976562 30.609375 7.726562 30.613281 9.183594 31.425781 Z M 10.542969 32.320312 C 10.039062 31.480469 8.742188 31.558594 10.542969 32.320312 Z M 18.269531 36.980469 C 19.023438 37.644531 21.734375 37.472656 19.1875 37.0625 C 18.808594 36.5 16.789062 36.636719 18.269531 36.980469 Z M 28.890625 43.539062 C 30.050781 42.566406 27.765625 43.972656 28.890625 43.539062 Z M 31.304688 45.199219 C 31.3125 44.886719 30.804688 45.335938 31.304688 45.199219 Z M 31.308594 44.761719 C 32.59375 43.398438 30.0625 44.839844 31.308594 44.761719 Z M 5.84375 28.632812 C 4.746094 27.070312 5.164062 26.363281 4.105469 25.089844 C 3.902344 24.109375 2.292969 21.894531 3.269531 24.242188 C 4.167969 25.617188 4.433594 27.742188 5.84375 28.632812 Z M 30.90625 44.328125 C 33.269531 42.796875 29.933594 43.660156 30.90625 44.328125 Z M 32.710938 45.035156 C 33.898438 44.019531 31.960938 44.824219 32.710938 45.035156 Z M 8.78125 29.699219 C 9.121094 29.195312 7.90625 29.632812 8.78125 29.699219 Z M 32.332031 44.550781 C 33.480469 43.808594 32.070312 43.925781 32.125 44.617188 Z M 16.769531 34.738281 C 16.730469 34.238281 16.164062 34.777344 16.769531 34.738281 Z M 17.730469 35.292969 C 17.425781 34.675781 17.261719 35.390625 17.730469 35.292969 Z M 34.175781 45.050781 C 35.644531 43.988281 33.285156 44.847656 33.867188 45.253906 Z M 33.613281 44.78125 C 34.808594 43.777344 32.347656 45.226562 33.613281 44.78125 Z M 36.488281 46.695312 C 37.292969 46.15625 35.511719 46.519531 36.488281 46.695312 Z M 9.519531 29.332031 C 10.597656 29.574219 13.824219 31.988281 11.921875 29.5 C 10.945312 29.210938 11.53125 26.828125 10.535156 27.25 C 11.203125 28.363281 11.085938 28.839844 9.679688 28.136719 C 7.921875 27.277344 8.695312 28.5625 9.035156 28.917969 C 8.570312 29.023438 9.660156 29.324219 9.519531 29.332031 Z M 4.613281 25.457031 C 4.804688 24.660156 2.835938 21.070312 3.683594 23.660156 C 3.988281 24.199219 3.953125 25.230469 4.613281 25.457031 Z M 13.621094 31.011719 C 13.066406 30.546875 13.59375 30.945312 13.621094 31.011719 Z M 14.988281 31.328125 C 14.988281 30.484375 13.476562 30.988281 14.988281 31.328125 Z M 26.824219 38.792969 C 26.597656 38.214844 25.929688 38.78125 26.824219 38.792969 Z M 27.390625 39.207031 C 27.308594 38.886719 27.066406 39.269531 27.390625 39.207031 Z M 32.082031 42.167969 C 32.535156 41.832031 31.519531 42.125 32.082031 42.167969 Z M 7.0625 26.082031 C 8.355469 25.582031 5.679688 25.730469 7.0625 26.082031 Z M 25.777344 37.878906 C 25.765625 37.042969 24.957031 38.085938 25.777344 37.878906 Z M 6.550781 24.898438 C 7.382812 24.617188 5.785156 24.710938 6.550781 24.898438 Z M 8.957031 26.066406 C 8.945312 25.789062 8.703125 26.167969 8.957031 26.066406 Z M 38.3125 44.066406 C 39.378906 43.847656 41.808594 44.605469 42.199219 43.78125 C 40.910156 43.75 37.722656 42.867188 37.570312 43.988281 L 37.855469 44.039062 Z M 9.722656 26.257812 C 9.742188 25.410156 9.0625 26.226562 9.722656 26.257812 Z M 3.394531 21.863281 C 3.109375 20.25 2.300781 21.617188 3.394531 21.863281 Z M 4.902344 22.242188 C 4.921875 21.722656 3.523438 21.777344 4.902344 22.242188 Z M 5.765625 22.667969 C 5.515625 22.464844 5.570312 22.921875 5.765625 22.667969 Z M 11.195312 26.144531 C 11.449219 25.914062 10.589844 25.972656 11.195312 26.144531 Z M 5.195312 21.710938 C 5.046875 20.492188 3.445312 21.527344 5.195312 21.710938 Z M 2.097656 19.703125 C 2.054688 19.140625 1.796875 19.917969 2.097656 19.703125 Z M 2.554688 19.355469 C 2.484375 18.691406 2.160156 19.441406 2.554688 19.355469 Z M 5.097656 20.875 C 6.175781 20.453125 3.140625 20 4.882812 20.792969 Z M 39.128906 41.894531 C 39.816406 41.261719 38.253906 41.699219 39.128906 41.894531 Z M 43.238281 44.023438 C 43.515625 43.207031 42.542969 44.128906 43.238281 44.023438 Z M 5.359375 19.542969 C 5.476562 18.75 4.507812 19.699219 5.359375 19.542969 Z M 1.742188 17.121094 C 1.550781 16.007812 1.578125 14.050781 3.433594 14.710938 C 0.953125 15.203125 5.152344 17.796875 4.621094 15.75 C 5.664062 15.800781 6.664062 15.132812 6.113281 16.144531 C 8.171875 15.917969 9.59375 14.136719 11.582031 14.386719 C 13.128906 14.179688 14.820312 14.027344 16.484375 13.402344 C 17.855469 13.304688 19.171875 11.828125 18.421875 10.957031 C 16.554688 10.796875 14.601562 11.03125 12.535156 11.441406 C 10.246094 11.917969 8.167969 12.820312 5.855469 13.210938 C 3.605469 13.511719 6.308594 14.042969 5.664062 14.160156 C 4.488281 14.570312 7.066406 14.84375 5.511719 15.273438 C 4.554688 15.089844 3.554688 14.761719 3.964844 13.753906 C 1.808594 14.027344 -0.0859375 14.925781 1.617188 17.117188 L 1.742188 17.117188 Z M 6.941406 14.476562 C 7.445312 12.613281 9.648438 16.007812 7.769531 14.722656 C 7.542969 14.554688 7.175781 14.417969 6.941406 14.472656 Z M 7.039062 13.570312 C 7.765625 13.027344 7.425781 13.875 7.039062 13.570312 Z M 7.964844 13.585938 C 8.03125 12.730469 10.085938 14.042969 8.304688 13.894531 Z M 9.230469 13.078125 C 9.695312 12.535156 9.363281 13.554688 9.230469 13.078125 Z M 9.554688 12.859375 C 10.328125 11.933594 13.921875 12.269531 11.289062 12.769531 C 10.585938 12.238281 10.042969 13.082031 9.554688 12.859375 Z M 14.242188 12.136719 C 14.128906 9.609375 16.574219 13.039062 14.242188 12.136719 Z M 15.578125 12.128906 C 16.0625 10.855469 17.464844 11.617188 15.800781 11.871094 C 15.835938 12.007812 15.753906 12.53125 15.578125 12.128906 Z M 4.835938 18.890625 C 6.289062 18 3.292969 18.117188 4.835938 18.890625 Z M 5.910156 19.191406 C 6.421875 18.648438 4.804688 18.96875 5.910156 19.191406 Z M 2.742188 16.941406 C 3.574219 16.304688 1.761719 16.699219 2.742188 16.941406 Z M 45.664062 43.792969 C 45.691406 43.054688 45.03125 44.128906 45.664062 43.792969 Z M 41.304688 40.816406 C 41.429688 39.964844 40.742188 40.890625 41.304688 40.816406 Z M 46.867188 44.082031 C 48.027344 44.082031 50.382812 43.722656 47.855469 43.722656 C 47.460938 43.785156 45.546875 43.769531 46.863281 44.082031 Z M 6.855469 18.664062 C 7.792969 18.601562 8.324219 17.628906 6.671875 17.683594 C 4.109375 17.421875 8.929688 18.558594 6.34375 18.234375 C 5.996094 18.464844 6.835938 18.730469 6.855469 18.667969 Z M 7.683594 19.085938 C 7.582031 18.480469 7.390625 19.40625 7.683594 19.085938 Z M 8.664062 16.464844 C 9.074219 15.960938 8.101562 16.332031 8.664062 16.464844 Z M 5.539062 11.242188 C 7.214844 10.671875 9.511719 10.03125 10.300781 11.523438 C 9.496094 10.550781 9.976562 9.597656 10.738281 11.015625 C 11.816406 12.453125 12.355469 10.363281 11.652344 9.882812 C 12.449219 10.871094 13.359375 11.339844 12.1875 9.945312 C 13.457031 8.414062 9.640625 10.144531 8.769531 10.128906 C 8.355469 10.316406 4.457031 11.121094 5.539062 11.242188 Z M 6.519531 9.359375 C 7.480469 8.636719 9.828125 9.789062 8.320312 8.640625 C 8.175781 8.511719 5.015625 9.511719 6.519531 9.359375 Z M 10.007812 9.503906 C 11.128906 9.53125 9.527344 8 10.859375 8.691406 C 10.640625 7.976562 9.304688 7.84375 8.652344 7.558594 C 8.285156 8.210938 9.402344 9.511719 10.007812 9.503906 Z M 7.132812 6.335938 C 7.519531 5.8125 6.453125 6.605469 7.132812 6.335938 Z M 8.558594 6.679688 C 10.363281 6.441406 8.101562 5.902344 8.195312 6.660156 Z M 5.898438 4.597656 C 4.628906 2.9375 8.285156 4.875 6.996094 3.136719 C 5.910156 2.273438 4.863281 4.113281 5.898438 4.597656 Z M 22.199219 13.378906 C 22.78125 12.34375 19.792969 11.984375 21.804688 13.011719 C 21.992188 13.074219 21.953125 13.449219 22.199219 13.378906 Z M 22.199219 13.378906 "/>
</g>
</svg>
