<?xml version="1.0" encoding="UTF-8"?>
<svg xmlns="http://www.w3.org/2000/svg" xmlns:xlink="http://www.w3.org/1999/xlink" width="50px" height="px" viewBox="0 0 50 50" version="1.1">
<g id="surface1">
<path style=" stroke:none;fill-rule:nonzero;fill:rgb(0%,0%,0%);fill-opacity:1;" d="M 49.054688 22.769531 L 27.222656 0.941406 C 25.964844 -0.316406 23.925781 -0.316406 22.664062 0.941406 L 18.140625 5.472656 L 23.890625 11.222656 C 25.234375 10.773438 26.765625 11.078125 27.828125 12.140625 C 28.902344 13.214844 29.199219 14.761719 28.738281 16.101562 L 34.277344 21.640625 C 35.621094 21.175781 37.167969 21.480469 38.234375 22.546875 C 39.738281 24.046875 39.738281 26.472656 38.234375 27.972656 C 36.738281 29.472656 34.316406 29.472656 32.820312 27.972656 C 31.695312 26.847656 31.414062 25.1875 31.976562 23.816406 L 26.792969 18.65625 L 26.792969 32.25 C 27.160156 32.429688 27.503906 32.671875 27.808594 32.976562 C 29.292969 34.476562 29.292969 36.898438 27.808594 38.390625 C 26.308594 39.894531 23.871094 39.894531 22.371094 38.390625 C 20.875 36.894531 20.875 34.476562 22.371094 32.980469 C 22.753906 32.605469 23.179688 32.320312 23.632812 32.132812 L 23.632812 18.40625 C 23.179688 18.214844 22.75 17.945312 22.382812 17.570312 C 21.246094 16.433594 20.976562 14.773438 21.558594 13.386719 L 15.910156 7.707031 L 0.9375 22.667969 C -0.3125 23.929688 -0.3125 25.96875 0.9375 27.230469 L 22.769531 49.054688 C 24.027344 50.316406 26.066406 50.316406 27.324219 49.054688 L 49.054688 27.328125 C 50.316406 26.070312 50.316406 24.03125 49.054688 22.769531 "/>
</g>
</svg>
