<?xml version="1.0" encoding="UTF-8"?>
<svg xmlns="http://www.w3.org/2000/svg" xmlns:xlink="http://www.w3.org/1999/xlink" width="50px" height="px" viewBox="0 0 50 50" version="1.1">
<g id="surface1">
<path style=" stroke:none;fill-rule:nonzero;fill:rgb(0%,0%,0%);fill-opacity:1;" d="M 25 0.617188 C 11.1875 0.617188 0 11.8125 0 25.617188 C 0 36.667969 7.164062 46.035156 17.09375 49.335938 C 18.34375 49.574219 18.800781 48.800781 18.800781 48.136719 C 18.800781 47.542969 18.78125 45.96875 18.769531 43.886719 C 11.816406 45.394531 10.351562 40.53125 10.351562 40.53125 C 9.210938 37.644531 7.570312 36.875 7.570312 36.875 C 5.304688 35.324219 7.742188 35.355469 7.742188 35.355469 C 10.253906 35.53125 11.574219 37.929688 11.574219 37.929688 C 13.800781 41.753906 17.425781 40.648438 18.855469 40.011719 C 19.078125 38.394531 19.722656 37.292969 20.4375 36.667969 C 14.886719 36.042969 9.050781 33.890625 9.050781 24.3125 C 9.050781 21.582031 10.019531 19.355469 11.621094 17.605469 C 11.339844 16.972656 10.496094 14.429688 11.839844 10.988281 C 11.839844 10.988281 13.933594 10.316406 18.714844 13.550781 C 20.714844 12.992188 22.839844 12.71875 24.964844 12.707031 C 27.089844 12.71875 29.214844 12.992188 31.214844 13.550781 C 35.964844 10.316406 38.058594 10.988281 38.058594 10.988281 C 39.402344 14.429688 38.558594 16.972656 38.308594 17.605469 C 39.902344 19.355469 40.871094 21.582031 40.871094 24.3125 C 40.871094 33.917969 35.027344 36.03125 29.464844 36.644531 C 30.339844 37.394531 31.152344 38.929688 31.152344 41.269531 C 31.152344 44.617188 31.121094 47.304688 31.121094 48.117188 C 31.121094 48.773438 31.558594 49.554688 32.839844 49.304688 C 42.84375 46.023438 50 36.648438 50 25.617188 C 50 11.8125 38.804688 0.617188 25 0.617188 "/>
</g>
</svg>
