<?xml version="1.0" encoding="UTF-8"?>
<svg xmlns="http://www.w3.org/2000/svg" xmlns:xlink="http://www.w3.org/1999/xlink" width="50px" height="px" viewBox="0 0 50 50" version="1.1">
<g id="surface1">
<path style=" stroke:none;fill-rule:nonzero;fill:rgb(0%,0%,0%);fill-opacity:1;" d="M 29.351562 27.347656 L 28.734375 27.347656 L 28.734375 20.539062 L 30.8125 20.539062 C 32.511719 20.539062 33.089844 21.515625 33.089844 22.578125 C 33.089844 23.640625 32.507812 24.621094 30.8125 24.621094 L 29.351562 24.621094 Z M 29.351562 24.050781 L 30.890625 24.050781 C 31.300781 24.109375 31.71875 23.980469 32.015625 23.691406 C 32.316406 23.402344 32.464844 22.992188 32.417969 22.582031 C 32.464844 22.167969 32.316406 21.757812 32.019531 21.472656 C 31.71875 21.183594 31.304688 21.050781 30.894531 21.109375 L 29.351562 21.109375 Z M 35.351562 23.277344 C 34.890625 23.277344 34.429688 23.351562 33.992188 23.507812 L 33.992188 22.960938 C 34.425781 22.792969 34.886719 22.710938 35.351562 22.714844 C 36.714844 22.714844 37.070312 23.335938 37.070312 24.242188 L 37.070312 27.347656 L 36.714844 27.347656 L 36.578125 26.984375 C 36.179688 27.273438 35.699219 27.429688 35.207031 27.4375 C 34.792969 27.503906 34.371094 27.375 34.0625 27.089844 C 33.75 26.804688 33.589844 26.394531 33.617188 25.976562 C 33.617188 25.203125 34.046875 24.632812 35.234375 24.558594 L 36.433594 24.484375 L 36.433594 24.230469 C 36.433594 23.570312 36.199219 23.277344 35.351562 23.277344 Z M 35.191406 25.050781 C 34.542969 25.113281 34.261719 25.449219 34.261719 25.976562 C 34.261719 26.386719 34.363281 26.875 35.226562 26.875 C 35.65625 26.875 36.074219 26.75 36.433594 26.511719 L 36.433594 24.933594 Z M 39.066406 26.078125 C 38.96875 26.164062 38.90625 26.28125 38.890625 26.410156 C 38.890625 26.640625 39.003906 26.738281 39.238281 26.765625 L 40.777344 26.949219 C 41.632812 27.039062 42.023438 27.375 42.023438 28.164062 C 42.023438 29.273438 40.917969 29.707031 39.664062 29.707031 C 38.394531 29.707031 37.632812 29.335938 37.632812 28.335938 C 37.644531 27.773438 38.023438 27.289062 38.566406 27.140625 L 38.566406 27.128906 C 38.371094 26.996094 38.257812 26.769531 38.273438 26.53125 C 38.289062 26.28125 38.417969 26.054688 38.621094 25.914062 C 38.113281 25.597656 37.828125 25.019531 37.894531 24.425781 C 37.894531 23.488281 38.292969 22.714844 39.664062 22.714844 C 39.910156 22.714844 40.152344 22.746094 40.390625 22.808594 L 41.933594 22.808594 L 41.933594 23.152344 L 41.171875 23.371094 C 41.359375 23.6875 41.453125 24.054688 41.433594 24.421875 C 41.433594 25.359375 41.035156 26.132812 39.664062 26.132812 C 39.464844 26.132812 39.261719 26.113281 39.066406 26.074219 Z M 39.328125 27.300781 C 38.730469 27.4375 38.222656 27.71875 38.222656 28.300781 C 38.222656 28.972656 38.730469 29.164062 39.664062 29.164062 C 40.570312 29.164062 41.425781 28.933594 41.425781 28.164062 C 41.425781 27.703125 41.207031 27.519531 40.652344 27.453125 Z M 40.84375 24.425781 C 40.84375 23.824219 40.726562 23.269531 39.664062 23.269531 C 38.601562 23.269531 38.484375 23.824219 38.484375 24.425781 C 38.484375 25.023438 38.601562 25.578125 39.664062 25.578125 C 40.726562 25.578125 40.84375 25.023438 40.84375 24.421875 Z M 44.253906 22.714844 C 45.796875 22.714844 45.980469 23.769531 45.980469 25.078125 L 45.980469 25.367188 L 42.984375 25.367188 C 43.019531 26.160156 43.230469 26.875 44.253906 26.875 C 44.765625 26.902344 45.277344 26.816406 45.753906 26.621094 L 45.753906 27.164062 C 45.277344 27.359375 44.765625 27.453125 44.253906 27.4375 C 42.722656 27.4375 42.347656 26.386719 42.347656 25.078125 C 42.347656 23.769531 42.722656 22.714844 44.253906 22.714844 Z M 42.984375 24.851562 L 45.34375 24.851562 C 45.34375 24.042969 45.296875 23.28125 44.253906 23.28125 C 43.199219 23.28125 43.011719 24.03125 42.984375 24.851562 Z M 48.402344 24.742188 C 49.691406 24.859375 50 25.296875 50 26.039062 C 50 26.738281 49.554688 27.4375 48.175781 27.4375 C 47.714844 27.433594 47.257812 27.355469 46.824219 27.210938 L 46.824219 26.667969 C 47.261719 26.8125 47.722656 26.882812 48.183594 26.875 C 49.128906 26.875 49.382812 26.476562 49.382812 26.046875 C 49.382812 25.632812 49.257812 25.339844 48.359375 25.269531 C 47.042969 25.148438 46.769531 24.683594 46.769531 24.058594 C 46.769531 23.414062 47.183594 22.714844 48.464844 22.714844 C 48.914062 22.707031 49.355469 22.785156 49.773438 22.945312 L 49.773438 23.488281 C 49.351562 23.339844 48.90625 23.269531 48.457031 23.277344 C 47.558594 23.277344 47.367188 23.617188 47.367188 24.0625 C 47.367188 24.457031 47.53125 24.667969 48.402344 24.742188 Z M 5.097656 23.367188 L 2.875 23.367188 C 2.816406 23.367188 2.769531 23.414062 2.769531 23.472656 L 2.769531 24.558594 C 2.769531 24.617188 2.816406 24.664062 2.875 24.664062 L 3.742188 24.664062 L 3.742188 26.015625 C 3.503906 26.074219 3.257812 26.09375 3.011719 26.082031 C 2.375 26.082031 1.488281 25.851562 1.488281 23.898438 C 1.488281 21.949219 2.410156 21.691406 3.277344 21.691406 C 3.714844 21.675781 4.148438 21.742188 4.558594 21.886719 C 4.589844 21.894531 4.621094 21.886719 4.644531 21.867188 C 4.671875 21.84375 4.683594 21.816406 4.683594 21.785156 L 4.933594 20.734375 C 4.933594 20.699219 4.917969 20.671875 4.890625 20.652344 C 4.308594 20.367188 3.65625 20.25 3.011719 20.308594 C 1.519531 20.308594 0 20.9375 0 23.976562 C 0 27.011719 1.742188 27.464844 3.210938 27.464844 C 3.898438 27.480469 4.578125 27.300781 5.167969 26.945312 C 5.191406 26.925781 5.203125 26.894531 5.199219 26.863281 L 5.199219 23.472656 C 5.199219 23.414062 5.152344 23.367188 5.097656 23.367188 Z M 16.648438 20.671875 C 16.648438 20.617188 16.601562 20.570312 16.542969 20.570312 L 15.292969 20.570312 C 15.234375 20.570312 15.1875 20.617188 15.1875 20.671875 L 15.1875 23.089844 L 13.238281 23.089844 L 13.238281 20.671875 C 13.238281 20.617188 13.191406 20.570312 13.132812 20.570312 L 11.882812 20.570312 C 11.824219 20.570312 11.777344 20.617188 11.777344 20.671875 L 11.777344 27.226562 C 11.777344 27.28125 11.824219 27.328125 11.882812 27.328125 L 13.132812 27.328125 C 13.191406 27.328125 13.238281 27.28125 13.238281 27.226562 L 13.238281 24.421875 L 15.191406 24.421875 L 15.183594 27.226562 C 15.183594 27.28125 15.230469 27.328125 15.289062 27.328125 L 16.546875 27.328125 C 16.601562 27.328125 16.648438 27.28125 16.648438 27.226562 Z M 7.503906 21.53125 C 7.5 21.085938 7.136719 20.726562 6.691406 20.730469 C 6.242188 20.734375 5.886719 21.097656 5.886719 21.542969 C 5.890625 21.988281 6.253906 22.347656 6.699219 22.347656 C 7.144531 22.34375 7.507812 21.980469 7.503906 21.53125 Z M 7.417969 25.839844 L 7.417969 22.816406 C 7.417969 22.757812 7.371094 22.710938 7.3125 22.710938 L 6.0625 22.710938 C 6.003906 22.71875 5.957031 22.769531 5.957031 22.828125 L 5.957031 27.164062 C 5.957031 27.289062 6.035156 27.328125 6.136719 27.328125 L 7.261719 27.328125 C 7.386719 27.328125 7.417969 27.265625 7.417969 27.160156 Z M 21.507812 22.722656 L 20.265625 22.722656 C 20.207031 22.722656 20.160156 22.765625 20.160156 22.824219 L 20.160156 26.039062 C 19.933594 26.1875 19.667969 26.265625 19.394531 26.265625 C 18.949219 26.265625 18.828125 26.066406 18.828125 25.628906 L 18.828125 22.828125 C 18.828125 22.769531 18.78125 22.722656 18.726562 22.722656 L 17.464844 22.722656 C 17.410156 22.722656 17.363281 22.769531 17.363281 22.828125 L 17.363281 25.839844 C 17.363281 27.144531 18.085938 27.460938 19.085938 27.460938 C 19.613281 27.449219 20.125 27.292969 20.566406 27.011719 C 20.578125 27.101562 20.59375 27.1875 20.613281 27.277344 C 20.632812 27.3125 20.664062 27.332031 20.703125 27.332031 L 21.507812 27.328125 C 21.5625 27.328125 21.609375 27.28125 21.609375 27.226562 L 21.609375 22.824219 C 21.609375 22.765625 21.5625 22.722656 21.507812 22.722656 Z M 24.972656 22.574219 C 24.554688 22.570312 24.144531 22.679688 23.785156 22.886719 L 23.785156 20.671875 C 23.785156 20.617188 23.738281 20.570312 23.679688 20.570312 L 22.425781 20.570312 C 22.371094 20.570312 22.324219 20.617188 22.324219 20.671875 L 22.324219 27.226562 C 22.324219 27.28125 22.371094 27.328125 22.425781 27.328125 L 23.296875 27.328125 C 23.335938 27.328125 23.371094 27.308594 23.390625 27.273438 C 23.414062 27.175781 23.433594 27.074219 23.441406 26.972656 C 23.863281 27.308594 24.390625 27.480469 24.925781 27.457031 C 26.070312 27.457031 26.722656 26.878906 26.722656 24.859375 C 26.722656 22.835938 25.675781 22.578125 24.972656 22.578125 Z M 24.480469 26.265625 C 24.226562 26.257812 23.976562 26.1875 23.757812 26.054688 L 23.757812 23.980469 C 23.957031 23.867188 24.175781 23.796875 24.398438 23.773438 C 24.847656 23.734375 25.277344 23.867188 25.277344 24.933594 C 25.277344 26.058594 25.082031 26.285156 24.480469 26.265625 Z M 10.992188 22.710938 L 10.054688 22.710938 L 10.050781 21.472656 C 10.050781 21.421875 10.027344 21.398438 9.972656 21.398438 L 8.691406 21.398438 C 8.640625 21.398438 8.617188 21.421875 8.617188 21.46875 L 8.617188 22.75 L 7.929688 22.917969 C 7.886719 22.929688 7.855469 22.972656 7.855469 23.015625 L 7.855469 23.824219 C 7.855469 23.878906 7.902344 23.925781 7.960938 23.925781 L 8.617188 23.925781 L 8.617188 25.863281 C 8.617188 27.304688 9.625 27.449219 10.308594 27.449219 C 10.5625 27.4375 10.8125 27.398438 11.050781 27.324219 C 11.089844 27.308594 11.113281 27.269531 11.109375 27.230469 L 11.113281 26.34375 C 11.113281 26.285156 11.066406 26.238281 11.007812 26.238281 C 10.953125 26.238281 10.8125 26.261719 10.667969 26.261719 C 10.207031 26.261719 10.050781 26.046875 10.050781 25.769531 L 10.050781 23.925781 L 10.992188 23.925781 C 11.050781 23.925781 11.097656 23.878906 11.097656 23.824219 L 11.097656 22.816406 C 11.097656 22.757812 11.050781 22.710938 10.992188 22.710938 Z M 10.992188 22.710938 "/>
</g>
</svg>
