<?xml version="1.0" encoding="UTF-8"?>
<svg xmlns="http://www.w3.org/2000/svg" xmlns:xlink="http://www.w3.org/1999/xlink" width="50px" height="px" viewBox="0 0 50 50" version="1.1">
<g id="surface1">
<path style=" stroke:none;fill-rule:nonzero;fill:rgb(0%,0%,0%);fill-opacity:1;" d="M 0 0 L 0 50 L 50 50 L 50 0 Z M 7.757812 6.480469 L 18.171875 6.480469 L 18.171875 10.300781 L 15.277344 10.300781 L 15.277344 23.378906 L 18.171875 23.378906 L 18.171875 27.199219 L 7.757812 27.199219 L 7.757812 23.378906 L 10.765625 23.378906 L 10.765625 10.300781 L 7.757812 10.300781 Z M 30.789062 6.480469 L 35.417969 6.480469 L 35.417969 20.023438 C 35.417969 21.296875 35.300781 22.335938 34.953125 23.265625 C 34.605469 24.191406 34.140625 24.882812 33.449219 25.578125 C 32.871094 26.160156 32.058594 26.738281 31.136719 26.96875 C 30.175781 27.347656 29.15625 27.546875 28.125 27.546875 C 26.503906 27.546875 25.117188 27.199219 24.074219 26.621094 C 23.066406 26.046875 22.164062 25.304688 21.410156 24.421875 L 24.304688 21.179688 C 24.882812 21.878906 25.460938 22.335938 26.042969 22.683594 C 26.617188 23.035156 27.316406 23.265625 28.011719 23.265625 C 28.820312 23.265625 29.511719 23.035156 30.09375 22.453125 C 30.554688 21.875 30.789062 21.066406 30.789062 19.792969 Z M 4.628906 40.625 L 23.378906 40.625 L 23.378906 43.75 L 4.628906 43.75 Z M 4.628906 40.625 "/>
</g>
</svg>
