<?xml version="1.0" encoding="UTF-8"?>
<svg xmlns="http://www.w3.org/2000/svg" xmlns:xlink="http://www.w3.org/1999/xlink" width="50px" height="px" viewBox="0 0 50 50" version="1.1">
<g id="surface1">
<path style=" stroke:none;fill-rule:nonzero;fill:rgb(0%,0%,0%);fill-opacity:1;" d="M 0 0 L 50 0 L 50 50 L 0 50 Z M 45.902344 38.074219 C 45.539062 35.792969 44.054688 33.878906 39.648438 32.089844 C 38.113281 31.371094 36.410156 30.871094 35.902344 29.714844 C 35.714844 29.027344 35.683594 28.652344 35.808594 28.246094 C 36.121094 26.898438 37.714844 26.496094 38.964844 26.871094 C 39.777344 27.121094 40.527344 27.746094 40.996094 28.746094 C 43.152344 27.335938 43.152344 27.335938 44.652344 26.402344 C 44.089844 25.527344 43.8125 25.148438 43.433594 24.777344 C 42.121094 23.308594 40.371094 22.558594 37.527344 22.621094 L 36.058594 22.808594 C 34.652344 23.152344 33.308594 23.902344 32.496094 24.902344 C 30.121094 27.589844 30.808594 32.277344 33.683594 34.214844 C 36.527344 36.339844 40.683594 36.808594 41.214844 38.808594 C 41.714844 41.246094 39.402344 42.027344 37.121094 41.746094 C 35.429688 41.371094 34.496094 40.527344 33.464844 38.964844 L 29.652344 41.152344 C 30.089844 42.152344 30.589844 42.589844 31.339844 43.464844 C 34.964844 47.121094 44.027344 46.933594 45.652344 41.371094 C 45.714844 41.183594 46.152344 39.902344 45.808594 37.933594 Z M 27.191406 22.980469 L 22.507812 22.980469 C 22.507812 27.019531 22.488281 31.03125 22.488281 35.074219 C 22.488281 37.640625 22.617188 39.996094 22.199219 40.722656 C 21.511719 42.160156 19.742188 41.976562 18.9375 41.722656 C 18.113281 41.316406 17.695312 40.753906 17.207031 39.941406 C 17.078125 39.722656 16.980469 39.535156 16.945312 39.535156 L 13.140625 41.878906 C 13.777344 43.191406 14.703125 44.320312 15.898438 45.039062 C 17.679688 46.101562 20.074219 46.445312 22.582031 45.882812 C 24.210938 45.410156 25.617188 44.441406 26.355469 42.941406 C 27.417969 41.003906 27.191406 38.628906 27.179688 35.972656 C 27.207031 31.691406 27.179688 27.410156 27.179688 23.097656 Z M 27.191406 22.980469 "/>
</g>
</svg>
