<?xml version="1.0" encoding="UTF-8"?>
<svg xmlns="http://www.w3.org/2000/svg" xmlns:xlink="http://www.w3.org/1999/xlink" width="50px" height="50px" viewBox="0 0 50 50" version="1.1">
<g id="surface1">
<path style=" stroke:none;fill-rule:nonzero;fill:rgb(0%,0%,0%);fill-opacity:1;" d="M 3.175781 12.230469 C -1.253906 18.589844 -0.703125 26.867188 2.683594 33.621094 C 2.761719 33.789062 2.847656 33.945312 2.929688 34.101562 C 2.976562 34.207031 3.03125 34.308594 3.089844 34.414062 C 3.117188 34.46875 3.152344 34.527344 3.1875 34.582031 C 3.242188 34.691406 3.300781 34.796875 3.355469 34.898438 L 3.683594 35.453125 C 3.746094 35.554688 3.800781 35.65625 3.871094 35.757812 C 3.988281 35.953125 4.121094 36.148438 4.242188 36.34375 C 4.296875 36.425781 4.347656 36.507812 4.40625 36.585938 C -5.695312 27.699219 -6.683594 12.304688 2.203125 2.203125 C 11.089844 -7.898438 26.484375 -8.886719 36.585938 0 C 36.75 0.222656 36.914062 0.441406 37.085938 0.65625 C 37.144531 0.734375 37.207031 0.816406 37.265625 0.894531 L 37.726562 1.457031 C 37.785156 1.519531 37.839844 1.597656 37.898438 1.664062 C 38.105469 1.910156 38.320312 2.148438 38.539062 2.390625 L 38.546875 2.402344 C 37.882812 12.386719 29.253906 19.945312 19.269531 19.28125 C 9.285156 18.617188 1.726562 9.984375 2.390625 0 C 2.558594 0.171875 2.726562 0.34375 2.902344 0.511719 L 3.113281 0.710938 C 3.34375 0.929688 3.578125 1.148438 3.820312 1.355469 C 3.824219 1.355469 3.828125 1.359375 3.832031 1.363281 L 3.949219 1.464844 C 4.164062 1.652344 4.378906 1.835938 4.597656 2.007812 L 4.855469 2.226562 C 5.035156 2.367188 5.21875 2.503906 5.398438 2.644531 L 5.683594 2.863281 C 5.878906 3.007812 6.082031 3.152344 6.28125 3.292969 C 6.355469 3.347656 6.425781 3.398438 6.503906 3.445312 L 6.566406 3.492188 L 7.148438 3.878906 L 7.398438 4.046875 C 7.707031 4.242188 8.011719 4.429688 8.316406 4.613281 C 8.398438 4.652344 8.488281 4.703125 8.570312 4.753906 C 8.796875 4.882812 9.027344 5.015625 9.257812 5.136719 C 9.382812 5.207031 9.511719 5.265625 9.640625 5.332031 C 9.796875 5.417969 9.957031 5.503906 10.128906 5.589844 C 8.582031 6.84375 6.316406 6.609375 5.0625 5.0625 C 3.8125 3.519531 4.046875 1.253906 5.589844 0 C 5.660156 0.03125 5.726562 0.0664062 5.792969 0.0976562 C 6.042969 0.222656 6.300781 0.34375 6.574219 0.460938 C 6.621094 0.484375 6.675781 0.503906 6.730469 0.535156 C 7.03125 0.664062 7.332031 0.789062 7.644531 0.914062 C 7.714844 0.933594 7.789062 0.96875 7.863281 0.996094 C 8.144531 1.101562 8.433594 1.210938 8.71875 1.3125 L 8.824219 1.351562 C 9.144531 1.457031 9.457031 1.5625 9.78125 1.664062 C 9.855469 1.683594 9.933594 1.710938 10.011719 1.730469 C 10.347656 1.832031 10.667969 1.949219 11 2.015625 C 32.402344 5.917969 38.621094 -10.851562 38.621094 -10.851562 C 33.394531 -4.046875 24.125 -2.253906 15.339844 -4.25 C 15.015625 -4.324219 14.691406 -4.429688 14.363281 -4.523438 C 16.835938 -19.457031 30.65625 -29.773438 45.675781 -27.90625 C 60.695312 -26.035156 71.5625 -12.644531 70.296875 2.441406 C 69.035156 17.523438 56.089844 28.921875 40.96875 28.265625 C 25.847656 27.609375 13.9375 15.136719 13.984375 0 L 13.855469 -0.0507812 C 13.570312 -0.144531 13.296875 -0.253906 13.019531 -0.359375 C 13 -0.238281 12.972656 -0.117188 12.9375 0 C 12.628906 -0.125 12.332031 -0.253906 12.035156 -0.382812 C 11.972656 -0.402344 11.917969 -0.433594 11.851562 -0.457031 C 15.726562 -26.839844 40.050781 -45.238281 66.492188 -41.78125 C 92.933594 -38.328125 111.714844 -14.300781 108.683594 12.195312 C 105.648438 38.6875 81.925781 57.847656 55.386719 55.238281 C 28.847656 52.628906 9.3125 29.210938 11.496094 2.636719 C 11.300781 2.542969 11.105469 2.4375 10.914062 2.335938 C 13.507812 -1.347656 18.582031 -2.261719 22.296875 0.292969 C 26.011719 2.84375 26.980469 7.910156 24.46875 11.652344 C 21.957031 15.394531 16.898438 16.417969 13.132812 13.945312 C 9.363281 11.472656 8.285156 6.429688 10.714844 2.636719 C 10.476562 2.511719 10.242188 2.375 10.007812 2.246094 C 9.933594 2.195312 9.855469 2.152344 9.773438 2.109375 C 13.226562 -15.445312 29.972656 -27.097656 47.632812 -24.234375 C 65.289062 -21.367188 77.496094 -5.019531 75.222656 12.726562 C 72.949219 30.46875 57.015625 43.214844 39.203125 41.535156 C 21.394531 39.855469 8.125 24.355469 9.210938 6.496094 L 21.730469 19.019531 C 21.660156 18.972656 21.589844 18.917969 21.515625 18.867188 C 31.90625 15.425781 43.128906 21.019531 46.628906 31.390625 C 50.132812 41.761719 44.605469 53.011719 34.253906 56.578125 C 23.90625 60.140625 12.621094 54.675781 8.996094 44.347656 C 5.371094 34.019531 10.769531 22.703125 21.074219 19.019531 C 20.988281 18.949219 20.894531 18.882812 20.800781 18.808594 C 20.617188 18.664062 20.429688 18.527344 20.246094 18.378906 L 20.003906 18.179688 C 29.054688 10.132812 42.898438 10.886719 51.027344 19.867188 C 59.152344 28.847656 58.523438 42.699219 49.617188 50.90625 C 40.710938 59.109375 26.855469 58.605469 18.566406 49.773438 C 10.28125 40.941406 10.660156 27.082031 19.417969 18.714844 L 18.695312 18.058594 L 18.488281 17.863281 C 18.316406 17.6875 18.140625 17.519531 17.964844 17.351562 L 17.761719 17.140625 C 22.226562 7.878906 33.269531 3.878906 42.628906 8.128906 C 51.992188 12.382812 56.242188 23.332031 52.203125 32.789062 C 48.164062 42.242188 37.3125 46.742188 27.769531 42.914062 C 18.222656 39.089844 13.480469 28.34375 17.089844 18.714844 L 17.058594 18.683594 C 16.835938 18.441406 16.621094 18.195312 16.40625 17.945312 C 16.351562 17.882812 16.296875 17.808594 16.238281 17.742188 L 15.765625 17.164062 C 28.734375 -3.390625 55.832031 -9.667969 76.519531 3.089844 C 97.203125 15.84375 103.757812 42.878906 91.214844 63.695312 C 78.667969 84.507812 51.703125 91.339844 30.761719 79.007812 C 9.820312 66.675781 2.714844 39.78125 14.832031 18.714844 C 4.484375 24.5625 2.722656 15.382812 6.617188 7.855469 M 16.917969 6.871094 C 13.707031 11.476562 13.886719 17.640625 16.386719 22.511719 C 7.246094 25.992188 -3.042969 21.957031 -7.382812 13.1875 C -11.71875 4.421875 -8.679688 -6.207031 -0.367188 -11.359375 C 7.949219 -16.511719 18.816406 -14.503906 24.742188 -6.71875 C 30.664062 1.066406 29.699219 12.078125 22.511719 18.714844 C 22.992188 19.402344 23.519531 20.21875 24.164062 20.773438 C 24.386719 21.027344 24.628906 21.273438 24.882812 21.523438 L 25.070312 21.710938 C 25.304688 21.941406 25.550781 22.164062 25.796875 22.390625 L 25.832031 22.417969 C 32.195312 31.21875 30.613281 43.453125 22.21875 50.347656 C 13.828125 57.238281 1.519531 56.414062 -5.878906 48.460938 C -13.277344 40.507812 -13.210938 28.171875 -5.726562 20.300781 C 1.753906 12.425781 14.070312 11.734375 22.390625 18.714844 C 22.460938 18.765625 22.519531 18.820312 22.589844 18.867188 C 22.882812 19.09375 23.175781 19.308594 23.480469 19.527344 L 23.511719 19.546875 C 23.640625 19.640625 23.777344 19.726562 23.925781 19.816406 C 23.984375 19.855469 24.050781 19.902344 24.113281 19.941406 C 24.332031 20.082031 24.550781 20.214844 24.773438 20.351562 C 24.808594 20.367188 24.839844 20.386719 24.875 20.398438 C 25.0625 20.515625 25.265625 20.625 25.460938 20.726562 C 25.53125 20.769531 25.597656 20.800781 25.671875 20.839844 C 25.808594 20.910156 25.945312 20.980469 26.082031 21.050781 L 26.148438 21.082031 C 26.429688 21.222656 26.714844 21.351562 26.996094 21.476562 C 27.070312 21.507812 27.128906 21.527344 27.191406 21.558594 C 27.421875 21.660156 27.65625 21.753906 27.890625 21.84375 C 27.992188 21.878906 28.089844 21.921875 28.191406 21.953125 C 28.402344 22.03125 28.628906 22.105469 28.835938 22.175781 L 29.128906 22.269531 C 29.433594 22.363281 29.742188 22.488281 30.0625 22.542969 C 46.175781 35.847656 50 23.121094 50 23.121094 C 46.554688 28.078125 39.890625 30.441406 32.789062 28.597656 C 30.5625 36.578125 22.835938 41.730469 14.613281 40.71875 C 6.386719 39.707031 0.140625 32.835938 -0.0898438 24.554688 C -0.316406 16.269531 5.546875 9.066406 13.703125 7.605469 C 21.859375 6.148438 29.859375 10.871094 32.519531 18.714844 C 32.417969 18.6875 32.332031 18.65625 32.234375 18.628906 C 32.019531 18.550781 31.796875 18.480469 31.585938 18.398438 L 31.285156 18.289062 C 31.050781 18.195312 30.8125 18.105469 30.585938 18.007812 C 30.515625 17.976562 30.449219 17.953125 30.394531 17.921875 C 30.105469 17.792969 29.808594 17.664062 29.523438 17.523438 L 29.097656 17.300781 L 28.847656 17.175781 C 30.699219 11.050781 37.089844 7.511719 43.261719 9.191406 C 49.4375 10.871094 53.152344 17.15625 51.648438 23.375 C 50.144531 29.59375 43.964844 33.484375 37.707031 32.15625 C 31.449219 30.828125 27.382812 24.761719 28.535156 18.464844 C 28.316406 18.328125 28.082031 18.195312 27.871094 18.054688 C 27.800781 18.015625 27.738281 17.964844 27.671875 17.925781 L 27.238281 17.640625 C 26.9375 17.433594 26.644531 17.207031 26.347656 16.988281 C 26.277344 16.929688 26.214844 16.878906 26.148438 16.824219 C 23.027344 14.371094 20.566406 11.011719 19.394531 7.214844 C 18.167969 3.261719 18.4375 -1.167969 20.5625 -4.765625 M 29.503906 -5.070312 C 27.609375 -2.292969 27.429688 1.160156 28.734375 4.222656 C 30.117188 7.476562 32.949219 10.035156 36.25 11.242188 C 36.386719 11.292969 36.515625 11.335938 36.660156 11.386719 L 36.839844 11.445312 C 37.035156 11.507812 37.226562 11.574219 37.425781 11.617188 C 46.550781 13.378906 49.023438 6.929688 49.6875 5.984375 C 47.515625 9.105469 43.871094 9.855469 39.398438 8.765625 C 42.242188 5.648438 46.722656 4.628906 50.636719 6.199219 C 54.546875 7.773438 57.074219 11.613281 56.964844 15.828125 C 56.859375 20.046875 54.144531 23.753906 50.15625 25.128906 C 46.171875 26.503906 41.75 25.253906 39.066406 22 L 52.671875 35.605469 C 48.667969 32.570312 46.183594 26.777344 48.796875 22.0625 "/>
</g>
</svg>
