<?xml version="1.0" encoding="UTF-8"?>
<svg xmlns="http://www.w3.org/2000/svg" xmlns:xlink="http://www.w3.org/1999/xlink" width="50px" height="px" viewBox="0 0 50 50" version="1.1">
<g id="surface1">
<path style=" stroke:none;fill-rule:nonzero;fill:rgb(0%,0%,0%);fill-opacity:1;" d="M 21.25 0 L 21.25 13.449219 L 25 18.601562 L 28.75 13.449219 L 28.75 0 Z M 28.75 13.449219 L 28.75 19.851562 L 34.800781 17.851562 L 42.75 7 L 36.648438 2.550781 Z M 34.800781 17.851562 L 31.050781 23.050781 L 37.148438 25 L 49.949219 20.851562 L 47.601562 13.699219 Z M 37.148438 25 L 31.050781 26.949219 L 34.800781 32.148438 L 47.601562 36.300781 L 49.949219 29.148438 Z M 34.800781 32.148438 L 28.75 30.148438 L 28.75 36.550781 L 36.648438 47.449219 L 42.75 43 Z M 28.75 36.550781 L 25 31.398438 L 21.25 36.550781 L 21.25 50 L 28.75 50 Z M 21.25 36.550781 L 21.25 30.148438 L 15.199219 32.148438 L 7.25 43 L 13.351562 47.449219 Z M 15.199219 32.148438 L 18.949219 26.949219 L 12.851562 25 L 0.0507812 29.148438 L 2.398438 36.300781 Z M 12.851562 25 L 18.949219 23.050781 L 15.199219 17.851562 L 2.398438 13.699219 L 0.0507812 20.851562 Z M 15.199219 17.851562 L 21.25 19.851562 L 21.25 13.449219 L 13.351562 2.550781 L 7.25 7 Z M 15.199219 17.851562 "/>
</g>
</svg>
