<?xml version="1.0" encoding="UTF-8"?>
<svg xmlns="http://www.w3.org/2000/svg" xmlns:xlink="http://www.w3.org/1999/xlink" width="50px" height="px" viewBox="0 0 50 50" version="1.1">
<g id="surface1">
<path style=" stroke:none;fill-rule:nonzero;fill:rgb(0%,0%,0%);fill-opacity:1;" d="M 26.050781 0 C 25.726562 0 25.394531 0.015625 25.050781 0.0429688 C 16.246094 0.738281 18.582031 10.058594 18.445312 13.164062 C 18.289062 15.441406 17.820312 17.234375 16.257812 19.457031 C 14.414062 21.644531 11.828125 25.183594 10.601562 28.875 C 10.019531 30.609375 9.746094 32.382812 10.003906 34.058594 C 0.597656 33.984375 -6.964844 26.296875 -6.886719 16.890625 C -6.808594 7.484375 0.878906 -0.078125 10.285156 0 C 9.742188 0.558594 9.347656 1.25 8.902344 1.746094 C 8.488281 2.164062 7.890625 2.304688 7.242188 2.582031 C 6.589844 2.863281 5.871094 3.140625 5.441406 3.996094 C 5.253906 4.390625 5.160156 4.820312 5.167969 5.253906 C 5.167969 5.667969 5.222656 6.085938 5.28125 6.367188 C 5.402344 7.199219 5.523438 7.886719 5.363281 8.390625 C 4.847656 9.804688 4.78125 10.773438 5.144531 11.480469 C 5.507812 12.175781 6.257812 12.460938 7.101562 12.734375 C 8.789062 13.148438 11.082031 13.015625 12.882812 13.984375 C 14.808594 14.953125 16.769531 15.378906 18.332031 14.960938 C 19.425781 14.722656 20.351562 13.996094 20.847656 12.992188 C 22.070312 12.984375 23.410156 12.429688 25.554688 12.296875 C 27.011719 12.175781 28.835938 12.851562 30.925781 12.710938 C 30.976562 12.992188 31.054688 13.125 31.164062 13.40625 L 31.167969 13.414062 C 31.984375 15.035156 33.488281 15.769531 35.09375 15.644531 C 36.699219 15.519531 38.410156 14.527344 39.796875 12.921875 C 41.109375 11.328125 43.300781 10.664062 44.75 9.792969 C 45.476562 9.378906 46.058594 8.816406 46.101562 8.015625 C 46.148438 7.179688 45.683594 6.324219 44.613281 5.148438 L 44.613281 4.945312 L 44.609375 4.941406 C 44.253906 4.523438 44.085938 3.824219 43.902344 3.011719 C 43.726562 2.175781 43.523438 1.371094 42.878906 0.832031 L 42.871094 0.832031 C 42.75 0.71875 42.617188 0.691406 42.480469 0.550781 C 42.367188 0.390625 42.316406 0.195312 42.347656 0 C 43.246094 -2.664062 42.898438 -5.3125 41.988281 -7.695312 C 40.878906 -10.632812 38.933594 -13.191406 37.457031 -14.953125 C 35.796875 -17.046875 34.171875 -19.027344 34.207031 -21.96875 C 34.261719 -26.453125 34.699219 -34.746094 26.824219 -34.757812 Z M 27.152344 7.09375 L 27.179688 7.09375 C 27.621094 7.09375 28.003906 7.222656 28.394531 7.507812 C 28.792969 7.789062 29.082031 8.199219 29.308594 8.617188 C 29.527344 9.15625 29.636719 9.574219 29.652344 10.125 C 29.652344 10.082031 29.667969 10.042969 29.667969 10 L 29.667969 10.21875 C 26.84375 10.230469 24.546875 7.953125 24.535156 5.132812 C 24.523438 2.308594 26.800781 0.0117188 29.621094 0 L 29.613281 -0.0507812 C 29.066406 -1.804688 29.863281 -3.695312 31.5 -4.53125 C 33.140625 -5.363281 35.136719 -4.890625 36.230469 -3.414062 C 37.324219 -1.9375 37.195312 0.113281 35.921875 1.4375 C 34.648438 2.761719 32.601562 2.972656 31.085938 1.933594 L 32.566406 3.414062 C 32.347656 3.320312 32.152344 3.28125 31.972656 3.136719 C 31.933594 3.230469 31.886719 3.324219 31.835938 3.414062 C 31.941406 3.289062 32.140625 3.136719 32.214844 3.003906 C 32.328125 2.734375 32.386719 2.453125 32.398438 2.164062 L 32.398438 2.121094 C 32.261719 2.628906 31.972656 3.082031 31.566406 3.414062 C 31.472656 3.136719 31.355469 2.996094 31.183594 2.722656 C 31.011719 2.582031 30.835938 2.445312 30.628906 2.445312 L 30.597656 2.445312 C 30.402344 2.445312 30.230469 2.507812 30.050781 2.722656 C 30.5 2.921875 30.835938 3.3125 30.972656 3.789062 C 31.105469 4.261719 31.023438 4.773438 30.746094 5.179688 L 30.746094 5.21875 C 30.75 5.402344 30.761719 5.589844 30.789062 5.773438 C 30.386719 5.636719 29.875 5.492188 29.523438 5.355469 C 31.164062 6.175781 31.859375 8.152344 31.09375 9.824219 C 30.328125 11.492188 28.375 12.253906 26.679688 11.539062 C 24.984375 10.828125 24.160156 8.902344 24.816406 7.1875 C 25.472656 5.46875 27.367188 4.582031 29.105469 5.179688 L 29.105469 5.136719 C 29.117188 3.101562 30.773438 1.460938 32.808594 1.464844 C 34.84375 1.472656 36.488281 3.125 36.488281 5.160156 C 36.488281 7.191406 34.84375 8.84375 32.808594 8.851562 C 30.773438 8.855469 29.117188 7.214844 29.105469 5.179688 C 29.277344 4.722656 29.589844 4.332031 30.003906 4.070312 C 30.308594 11.230469 24.75 17.285156 17.589844 17.589844 C 10.429688 17.898438 4.375 12.339844 4.070312 5.179688 Z M 20.980469 7.214844 L 21.054688 7.214844 C 21.351562 7.214844 21.617188 7.316406 21.886719 7.496094 C 22.191406 7.765625 22.4375 8.097656 22.605469 8.464844 C 22.792969 8.882812 22.894531 9.300781 22.921875 9.855469 L 22.921875 9.863281 C 22.9375 10.144531 22.933594 10.28125 22.917969 10.417969 L 22.917969 10.585938 C 22.855469 10.601562 22.800781 10.621094 22.746094 10.636719 C 22.429688 10.75 22.175781 10.917969 21.925781 11.050781 C 21.953125 10.863281 21.953125 10.675781 21.933594 10.496094 L 21.933594 10.464844 C 21.910156 10.1875 21.851562 10.046875 21.761719 9.769531 C 21.632812 9.996094 21.441406 10.175781 21.207031 10.289062 L 21.164062 10.289062 C 21.015625 10.300781 20.890625 10.371094 20.773438 10.5625 C 21.199219 10.648438 21.539062 10.960938 21.65625 11.375 C 21.773438 11.789062 21.652344 12.234375 21.335938 12.527344 L 21.335938 12.558594 C 21.363281 12.839844 21.414062 12.976562 21.503906 13.257812 C 21.601562 13.535156 21.707031 13.671875 21.851562 13.816406 C 21.871094 13.832031 21.890625 13.851562 21.921875 13.863281 C 21.773438 13.984375 21.675781 14.011719 21.554688 14.148438 C 23.0625 14.109375 24.316406 15.300781 24.355469 16.804688 C 24.394531 18.3125 23.203125 19.566406 21.695312 19.605469 L 25.386719 23.296875 L 29.050781 23.296875 C 28.867188 24.046875 29.691406 24.761719 30.902344 24.90625 C 32.113281 25.050781 33.261719 24.574219 33.488281 23.828125 C 33.710938 23.085938 32.929688 22.351562 31.726562 22.183594 C 31.992188 21.90625 32.265625 21.765625 32.597656 21.765625 Z M 23.835938 10.769531 C 24.527344 10.769531 25.363281 10.90625 26.367188 11.601562 C 26.980469 12.019531 27.457031 12.164062 28.558594 12.578125 L 28.566406 12.578125 C 29.097656 12.859375 29.410156 13.132812 29.5625 13.410156 L 29.5625 13.136719 C 32.0625 17.597656 30.46875 23.238281 26.007812 25.738281 C 21.546875 28.234375 15.90625 26.644531 13.410156 22.183594 C 13.152344 22.828125 12.332031 23.523438 11.195312 23.9375 L 11.195312 23.941406 C 10.636719 24.222656 10.148438 24.636719 9.578125 24.910156 C 9.003906 25.191406 8.355469 25.519531 7.472656 25.464844 C 9.523438 25.503906 11.152344 27.199219 11.117188 29.25 C 11.078125 31.300781 9.382812 32.933594 7.332031 32.894531 C 6.925781 32.613281 6.574219 32.203125 6.054688 31.925781 L 6.054688 31.917969 L 6.046875 31.917969 C 5.210938 31.402344 4.761719 30.851562 4.617188 30.4375 C 4.472656 29.878906 4.605469 29.457031 5.019531 29.1875 C 5.484375 28.90625 5.808594 28.621094 6.023438 28.488281 C 6.242188 28.332031 6.324219 28.273438 6.390625 28.214844 L 6.394531 28.214844 L 6.394531 28.207031 C 6.746094 27.789062 7.304688 27.230469 8.144531 26.957031 C 8.433594 26.882812 8.757812 26.820312 9.113281 26.820312 Z M 29.667969 15.234375 C 30.414062 18.183594 32.160156 22.472656 33.285156 24.550781 C 33.878906 25.664062 35.066406 28.007812 35.578125 30.851562 C 35.902344 30.839844 36.265625 30.890625 36.648438 30.984375 C 37.992188 27.503906 35.511719 23.761719 34.378906 22.722656 C 33.921875 22.304688 33.894531 22.023438 34.121094 22.023438 C 35.351562 23.136719 36.964844 25.300781 37.550781 27.769531 C 37.824219 28.882812 37.886719 30.070312 37.597656 31.246094 C 37.734375 31.304688 37.878906 31.371094 38.023438 31.386719 C 40.171875 32.5 40.964844 33.339844 40.585938 34.589844 L 40.585938 34.5 C 40.460938 34.492188 40.335938 34.5 40.210938 34.5 L 40.175781 34.5 C 40.492188 33.527344 39.796875 32.78125 37.957031 31.949219 C 36.050781 31.117188 34.527344 31.25 34.269531 32.917969 C 34.253906 33.007812 34.242188 33.054688 34.234375 33.199219 C 34.089844 33.246094 33.945312 33.308594 33.796875 33.332031 C 32.902344 33.890625 32.417969 34.726562 32.144531 35.804688 C 31.875 36.917969 31.792969 38.214844 31.71875 39.699219 L 31.71875 39.707031 C 31.675781 40.402344 31.363281 41.453125 31.054688 42.519531 C 27.929688 44.753906 23.597656 45.722656 19.914062 43.214844 C 19.851562 44.308594 19.464844 45.363281 18.800781 46.234375 C 19.179688 46.234375 19.507812 46.171875 19.769531 46.097656 C 19.808594 38.828125 25.734375 32.964844 33.003906 33.003906 C 40.273438 33.042969 46.132812 38.964844 46.097656 46.234375 C 46.320312 45.679688 46.097656 44.785156 45.378906 43.8125 C 44.660156 42.839844 43.4375 41.738281 41.652344 40.644531 C 40.339844 39.808594 39.597656 38.832031 39.257812 37.734375 C 38.914062 36.621094 38.957031 35.476562 39.226562 34.308594 C 39.734375 32.078125 41.042969 29.914062 41.878906 28.550781 C 42.101562 28.417969 41.957031 28.832031 41.027344 30.582031 C 40.203125 32.144531 38.652344 35.785156 40.773438 38.609375 C 44.984375 31.140625 54.113281 27.996094 62.027344 31.292969 C 69.941406 34.59375 74.140625 43.289062 71.800781 51.539062 C 69.457031 59.785156 61.316406 64.980469 52.851562 63.625 C 44.382812 62.273438 38.265625 54.804688 38.609375 46.234375 C 39.785156 43.574219 42.242188 38.933594 42.433594 35.261719 C 42.535156 35.335938 42.886719 35.542969 43.039062 35.679688 C 43.492188 35.957031 43.828125 36.375 44.265625 36.648438 C 44.703125 37.070312 45.261719 37.347656 46.089844 37.347656 C 46.171875 37.355469 46.246094 37.359375 46.320312 37.359375 C 47.179688 37.359375 47.839844 37.082031 48.398438 36.800781 C 49.003906 36.523438 49.480469 36.105469 49.941406 35.96875 L 49.949219 35.96875 C 50.921875 35.6875 51.691406 35.132812 52.125 34.511719 Z M 34.222656 33.894531 C 34.296875 35.144531 34.933594 36.488281 36.058594 36.765625 C 37.285156 37.042969 39.046875 36.070312 39.789062 35.171875 L 40.230469 35.148438 C 40.886719 35.136719 41.429688 35.171875 41.992188 35.707031 L 42 35.714844 C 42.433594 36.128906 42.636719 36.820312 42.816406 37.539062 C 42.992188 38.371094 43.136719 39.164062 43.667969 39.761719 C 44.679688 40.859375 45.011719 41.648438 44.992188 42.136719 L 44.996094 42.121094 L 44.996094 42.160156 L 44.992188 42.132812 C 44.960938 42.679688 44.605469 42.957031 43.953125 43.371094 C 42.640625 44.207031 40.316406 44.855469 38.835938 46.644531 C 37.546875 48.179688 35.980469 49.019531 34.59375 49.125 C 33.210938 49.234375 32.015625 48.707031 31.316406 47.253906 L 31.304688 47.246094 C 30.867188 46.414062 31.054688 45.113281 31.421875 43.726562 C 31.789062 42.335938 32.3125 40.925781 32.386719 39.773438 C 32.460938 38.289062 32.542969 36.992188 32.792969 35.996094 C 33.042969 35.027344 33.433594 34.335938 34.128906 33.945312 L 34.222656 33.898438 Z M 11.691406 33.996094 L 11.710938 33.996094 C 11.824219 33.996094 11.929688 34.007812 12.039062 34.027344 C 12.824219 34.140625 13.511719 34.722656 14.171875 35.59375 L 16.066406 39.058594 L 16.074219 39.066406 C 16.578125 40.175781 17.644531 41.285156 18.550781 42.476562 C 19.453125 43.722656 20.152344 44.832031 20.070312 45.746094 L 20.070312 45.761719 C 19.949219 47.308594 19.070312 48.152344 17.726562 48.457031 C 16.382812 48.738281 14.558594 48.460938 12.734375 47.488281 C 10.71875 46.371094 8.324219 46.511719 6.785156 46.234375 C 6.015625 46.097656 5.511719 45.820312 5.277344 45.402344 C 5.046875 44.984375 5.042969 44.148438 5.535156 42.839844 L 5.535156 42.832031 L 5.539062 42.824219 C 5.78125 42.128906 5.601562 41.257812 5.480469 40.496094 C 5.367188 39.660156 5.308594 39.015625 5.570312 38.539062 C 5.902344 37.839844 6.394531 37.703125 7.007812 37.425781 C 7.621094 37.144531 8.339844 37.007812 8.914062 36.449219 L 8.917969 36.449219 L 8.917969 36.445312 C 9.453125 35.886719 9.847656 35.191406 10.308594 34.699219 C 10.707031 34.277344 11.101562 33.996094 11.691406 33.996094 Z M 26.605469 15.09375 C 25.699219 15.511719 24.636719 16.207031 23.507812 16.207031 C 22.378906 16.207031 21.484375 15.652344 20.839844 15.238281 C 20.519531 14.957031 20.257812 14.679688 20.0625 14.539062 C 19.722656 14.261719 19.761719 13.847656 19.910156 13.847656 C 20.136719 13.878906 20.175781 14.125 20.324219 14.261719 C 20.523438 14.398438 20.769531 14.679688 21.074219 14.957031 C 21.679688 15.371094 22.488281 15.929688 23.503906 15.929688 C 24.515625 15.929688 25.699219 15.371094 26.417969 14.957031 C 26.824219 14.675781 27.34375 14.261719 27.765625 13.984375 C 28.089844 13.703125 28.078125 13.429688 28.347656 13.429688 C 28.613281 13.460938 28.417969 13.707031 28.042969 14.121094 C 34.914062 11.6875 42.574219 13.945312 47.027344 19.714844 C 51.480469 25.488281 51.722656 33.46875 47.628906 39.5 C 43.53125 45.53125 36.023438 48.246094 29.015625 46.234375 Z M 24.351562 11.796875 L 24.351562 11.75 C 24.339844 11.707031 24.378906 11.664062 24.414062 11.644531 C 24.566406 11.554688 24.789062 11.589844 24.953125 11.652344 C 25.085938 11.652344 25.289062 11.792969 25.265625 11.933594 C 25.253906 12.039062 25.089844 12.074219 24.984375 12.074219 C 24.871094 12.074219 24.792969 11.984375 24.691406 11.929688 C 24.582031 11.894531 24.386719 11.914062 24.351562 11.796875 Z M 23.203125 11.796875 C 23.164062 11.917969 22.96875 11.898438 22.859375 11.933594 C 22.761719 11.984375 22.679688 12.074219 22.566406 12.074219 C 22.460938 12.074219 22.296875 12.035156 22.285156 11.933594 C 22.261719 11.796875 22.464844 11.65625 22.597656 11.65625 C 22.761719 11.589844 22.980469 11.558594 23.136719 11.644531 C 23.175781 11.664062 23.210938 11.707031 23.199219 11.75 L 23.199219 11.792969 L 23.203125 11.792969 Z M 23.203125 11.796875 "/>
</g>
</svg>
