<?xml version="1.0" encoding="UTF-8"?>
<svg xmlns="http://www.w3.org/2000/svg" xmlns:xlink="http://www.w3.org/1999/xlink" width="50px" height="px" viewBox="0 0 50 50" version="1.1">
<g id="surface1">
<path style=" stroke:none;fill-rule:nonzero;fill:rgb(0%,0%,0%);fill-opacity:1;" d="M 25 0 C 11.203125 0 0 11.203125 0 25 C 0 38.796875 11.203125 50 25 50 C 38.796875 50 50 38.796875 50 25 C 50 11.203125 38.796875 0 25 0 Z M 25 1.5625 C 30.980469 1.5625 36.421875 3.816406 40.558594 7.5 L 9.4375 7.5 C 13.71875 3.671875 19.257812 1.558594 25 1.5625 Z M 10.027344 9.0625 L 39.972656 9.0625 L 25 39.007812 Z M 7.5 9.4375 L 7.5 40.5625 C 3.671875 36.28125 1.558594 30.742188 1.5625 25 C 1.5625 19.019531 3.816406 13.582031 7.5 9.441406 Z M 42.5 9.4375 C 46.328125 13.71875 48.441406 19.257812 48.4375 25 C 48.4375 30.980469 46.183594 36.421875 42.5 40.558594 Z M 9.0625 10.625 L 24.21875 40.9375 L 9.0625 40.9375 Z M 40.9375 10.625 L 40.9375 40.9375 L 25.78125 40.9375 L 40.941406 10.625 Z M 9.445312 42.5 L 40.558594 42.5 C 36.28125 46.328125 30.742188 48.441406 25 48.4375 C 19.261719 48.441406 13.71875 46.324219 9.441406 42.5 Z M 9.445312 42.5 "/>
</g>
</svg>
