<?xml version="1.0" encoding="UTF-8"?>
<svg xmlns="http://www.w3.org/2000/svg" xmlns:xlink="http://www.w3.org/1999/xlink" width="50px" height="px" viewBox="0 0 50 50" version="1.1">
<g id="surface1">
<path style=" stroke:none;fill-rule:nonzero;fill:rgb(0%,0%,0%);fill-opacity:1;" d="M 35.820312 19.90625 C 33.183594 8.28125 26.960938 4.460938 26.292969 3 C 25.707031 2.179688 25.1875 1.011719 24.761719 0 C 24.683594 1.03125 24.644531 1.425781 23.671875 2.464844 C 22.164062 3.644531 14.425781 10.136719 13.796875 23.339844 C 13.207031 35.660156 22.691406 42.996094 23.980469 43.933594 L 24.125 44.039062 C -19.710938 110.792969 -107.492188 132.640625 -177.507812 94.222656 C -247.519531 55.804688 -276.242188 -29.976562 -243.480469 -102.808594 C -210.722656 -175.640625 -127.484375 -211.058594 -52.289062 -184.160156 C 22.90625 -157.265625 64.796875 -77.085938 43.933594 0 L 44.933594 0 C 45.171875 -2.148438 45.527344 -4.285156 45.996094 -6.394531 C 46.867188 -7.011719 47.257812 -7.359375 47.769531 -7.839844 C 49.933594 7.515625 39.238281 21.71875 23.882812 23.882812 C 8.527344 26.050781 -5.675781 15.355469 -7.839844 0 C -7.820312 -1.695312 -8.054688 -3.460938 -8.25 -4.621094 Z M 24.703125 36.980469 C 24.703125 36.980469 24.703125 19.707031 25.273438 19.707031 C 25.71875 19.707031 26.296875 41.988281 26.296875 41.988281 C 25.503906 41.894531 24.703125 38.324219 24.703125 36.980469 Z M 24.703125 36.980469 "/>
</g>
</svg>
