<?xml version="1.0" encoding="UTF-8"?>
<svg xmlns="http://www.w3.org/2000/svg" xmlns:xlink="http://www.w3.org/1999/xlink" width="50px" height="px" viewBox="0 0 50 50" version="1.1">
<g id="surface1">
<path style=" stroke:none;fill-rule:nonzero;fill:rgb(0%,0%,0%);fill-opacity:1;" d="M 34.175781 11.460938 C 33.9375 11.460938 33.773438 11.488281 33.605469 11.527344 L 33.605469 11.554688 L 33.636719 11.554688 C 33.746094 11.773438 33.941406 11.929688 34.082031 12.125 C 34.195312 12.347656 34.289062 12.570312 34.402344 12.792969 L 34.429688 12.761719 C 34.628906 12.621094 34.722656 12.402344 34.722656 12.066406 C 34.640625 11.96875 34.628906 11.871094 34.554688 11.773438 C 34.472656 11.636719 34.292969 11.566406 34.179688 11.457031 Z M 12.019531 38.949219 L 10.089844 38.949219 C 4.582031 26.667969 1.460938 13.449219 0.902344 0 L 0.886719 0 L -2.050781 9.1875 L 5.105469 9.1875 L 2.1875 0 L 2.167969 0 C 5.226562 -0.09375 8.292969 -0.09375 11.355469 0 L 0 0 C 0.113281 -4.097656 0.398438 -7.9375 0.855469 -11.519531 L 3.25 -11.519531 L 6.03125 -3.054688 L 6.046875 -3.054688 L 8.855469 -11.519531 L 11.136719 -11.519531 C 11.640625 -7.324219 11.933594 -3.480469 12.027344 0 Z M 20.390625 30.449219 C 19.601562 34.707031 18.566406 37.808594 17.28125 39.738281 C 16.277344 41.230469 15.175781 41.976562 13.984375 41.976562 C 13.664062 41.976562 13.273438 41.878906 12.804688 41.6875 L 12.804688 40.660156 C 13.035156 40.695312 13.304688 40.710938 13.609375 40.710938 C 14.167969 40.710938 14.613281 40.554688 14.957031 40.25 C 15.367188 39.875 15.570312 39.453125 15.570312 38.988281 C 15.570312 38.667969 15.410156 38.011719 15.089844 37.023438 L 12.980469 30.449219 L 14.875 30.449219 L 16.390625 35.363281 C 16.730469 36.480469 16.875 37.261719 16.816406 37.703125 C 17.648438 35.488281 18.230469 33.066406 18.554688 30.449219 Z M 46.066406 38.949219 L 40.585938 38.949219 L 40.585938 27.425781 L 42.429688 27.425781 L 42.429688 37.53125 L 46.066406 37.53125 Z M 39.148438 39.230469 L 37.035156 38.1875 C 37.222656 38.027344 37.402344 37.859375 37.566406 37.667969 C 38.464844 36.613281 38.914062 35.046875 38.914062 32.972656 C 38.914062 29.160156 37.417969 27.253906 34.425781 27.253906 C 32.957031 27.253906 31.8125 27.734375 30.988281 28.703125 C 30.089844 29.761719 29.640625 31.320312 29.640625 33.382812 C 29.640625 35.40625 30.039062 36.894531 30.835938 37.839844 C 31.566406 38.695312 32.664062 39.121094 34.136719 39.121094 C 34.683594 39.121094 35.191406 39.050781 35.644531 38.917969 L 38.40625 40.523438 L 39.15625 39.230469 Z M 32.292969 36.640625 C 31.824219 35.890625 31.589844 34.683594 31.589844 33.023438 C 31.589844 30.121094 32.472656 28.671875 34.234375 28.671875 C 35.160156 28.671875 35.839844 29.019531 36.269531 29.710938 C 36.738281 30.464844 36.972656 31.664062 36.972656 33.300781 C 36.972656 36.226562 36.085938 37.695312 34.324219 37.695312 C 33.398438 37.695312 32.722656 37.347656 32.289062 36.652344 Z M 28.835938 35.757812 C 28.835938 36.734375 28.480469 37.539062 27.761719 38.164062 C 27.046875 38.789062 26.089844 39.101562 24.878906 39.101562 C 23.746094 39.101562 22.664062 38.742188 21.601562 38.027344 L 22.097656 37.039062 C 23.007812 37.496094 23.832031 37.722656 24.574219 37.722656 C 25.265625 37.722656 25.808594 37.570312 26.207031 37.261719 C 15.917969 34.210938 10.050781 23.394531 13.101562 13.101562 C 16.15625 2.8125 26.972656 -3.054688 37.261719 0 C 37.261719 -0.6875 36.785156 -1.269531 35.914062 -1.761719 C 35.105469 -2.203125 33.488281 -3.128906 33.488281 -3.128906 C 32.609375 -3.769531 32.171875 -4.453125 32.171875 -5.582031 C 32.171875 -6.519531 32.5 -7.269531 33.152344 -7.839844 C 33.808594 -8.421875 34.652344 -8.707031 35.695312 -8.707031 C 36.761719 -8.707031 37.734375 -8.421875 38.609375 -7.851562 L 38.167969 -6.859375 C 39.566406 -4.726562 39.371094 -1.917969 37.6875 0 C 37.097656 0 36.640625 0.140625 36.324219 0.429688 C 36.609375 0.136719 37.007812 -0.0195312 37.417969 0 C 37.417969 0.683594 37.902344 1.269531 38.804688 1.769531 C 39.621094 2.21875 41.277344 3.167969 41.277344 3.167969 C 42.179688 3.800781 42.628906 4.480469 42.628906 5.601562 Z M 48.382812 23.566406 C 47.269531 23.535156 46.402344 23.648438 45.679688 23.957031 C 45.472656 24.039062 45.140625 24.039062 45.109375 24.304688 C 45.226562 24.414062 45.242188 24.597656 45.339844 24.75 C 45.507812 25.027344 45.792969 25.402344 46.058594 25.597656 C 46.351562 25.828125 46.644531 26.046875 46.949219 26.242188 C 47.492188 26.578125 48.105469 26.773438 48.636719 27.109375 C 48.941406 27.304688 49.246094 27.554688 49.554688 27.761719 C 49.707031 27.867188 49.804688 28.054688 50 28.121094 L 50 28.078125 C 49.902344 27.953125 49.875 27.773438 49.78125 27.632812 C 49.640625 27.492188 49.503906 27.367188 49.363281 27.230469 C 41.84375 27.621094 35.433594 21.839844 35.046875 14.320312 C 34.65625 6.800781 40.4375 0.386719 47.957031 0 C 47.511719 -0.304688 46.539062 -0.730469 46.355469 -1.238281 L 46.328125 -1.269531 C 46.632812 -1.296875 46.992188 -1.40625 47.285156 -1.488281 C 47.757812 -1.613281 48.191406 -1.585938 48.679688 -1.710938 C 48.902344 -1.765625 49.125 -1.835938 49.347656 -1.90625 L 49.347656 -2.03125 C 49.097656 -2.28125 48.910156 -2.621094 48.652344 -2.855469 C 48.167969 -1.851562 47.59375 -0.898438 46.9375 0 C 46.5 -0.277344 45.945312 -0.457031 45.484375 -0.695312 C 45.320312 -0.777344 45.039062 -0.820312 44.945312 -0.960938 C 44.695312 -1.265625 44.546875 -1.667969 44.371094 -2.03125 C 60.269531 -14.238281 83.011719 -11.5 95.558594 4.136719 C 108.105469 19.769531 105.851562 42.566406 90.492188 55.441406 C 75.128906 68.320312 52.292969 66.558594 39.085938 51.476562 C 25.882812 36.394531 27.152344 13.527344 41.949219 0 C 41.699219 -0.546875 41.546875 -1.089844 41.238281 -1.589844 C 39.800781 -3.957031 38.246094 -5.394531 35.851562 -6.796875 C 35.335938 -7.089844 34.722656 -7.214844 34.070312 -7.367188 C 33.722656 -7.386719 33.371094 -7.410156 33.027344 -7.425781 C 32.796875 -7.523438 32.578125 -7.789062 32.382812 -7.914062 C 31.589844 -8.414062 29.539062 -9.496094 28.957031 -8.066406 C 28.582031 -7.160156 29.511719 -6.269531 29.835938 -5.808594 C 30.074219 -5.492188 30.378906 -5.128906 30.542969 -4.769531 C 30.640625 -4.527344 30.667969 -4.277344 30.765625 -4.027344 C 30.988281 -3.414062 31.199219 -2.730469 31.488281 -2.160156 C 31.640625 -1.867188 31.808594 -1.558594 32.003906 -1.296875 C 32.117188 -1.144531 32.308594 -1.074219 32.351562 -0.824219 C 32.15625 -0.542969 32.144531 -0.128906 32.03125 0.214844 C 31.53125 1.792969 31.726562 3.742188 32.433594 4.902344 C 32.660156 5.25 33.191406 6.015625 33.898438 5.722656 C 34.523438 5.472656 34.386719 4.679688 34.566406 3.984375 C 34.609375 3.816406 34.582031 3.707031 34.667969 3.59375 L 34.667969 3.625 C 34.863281 4.015625 35.058594 4.390625 35.238281 4.78125 C 35.667969 5.464844 36.417969 6.171875 37.042969 6.644531 C 37.378906 6.894531 37.640625 7.328125 38.058594 7.484375 L 38.058594 7.441406 L 38.027344 7.441406 C 37.9375 7.320312 37.820312 7.261719 37.707031 7.164062 C 42.746094 7.394531 46.644531 11.667969 46.414062 16.707031 C 46.183594 21.746094 41.914062 25.644531 36.871094 25.414062 C 36.644531 24.976562 36.453125 24.507812 36.269531 24.074219 C 36.183594 23.910156 36.183594 23.660156 36.046875 23.574219 C 35.835938 23.878906 35.53125 24.144531 35.378906 24.519531 C 35.113281 25.117188 35.085938 25.855469 34.988281 26.621094 C 34.929688 26.636719 34.957031 26.621094 34.929688 26.652344 C 34.484375 26.542969 34.332031 26.082031 34.167969 25.695312 C 33.75 24.703125 33.679688 23.113281 34.042969 21.976562 C 34.140625 21.683594 34.554688 20.761719 34.390625 20.484375 C 34.300781 20.21875 34.027344 20.066406 33.875 19.851562 C 35.410156 18.15625 37.875 17.671875 39.933594 18.660156 C 41.996094 19.648438 43.160156 21.875 42.800781 24.132812 C 42.4375 26.386719 40.636719 28.140625 38.371094 28.433594 C 36.105469 28.730469 33.914062 27.503906 32.984375 25.414062 C 32.652344 24.636719 32.484375 23.773438 32.121094 22.992188 C 31.957031 22.632812 31.664062 22.257812 31.425781 21.925781 C 31.164062 21.550781 30.871094 21.285156 30.660156 20.839844 C 30.589844 20.691406 30.492188 20.4375 30.605469 20.269531 C 30.632812 20.160156 30.691406 20.113281 30.800781 20.082031 C 30.984375 19.933594 31.496094 20.128906 31.679688 20.210938 C 32.195312 20.421875 32.628906 20.617188 33.058594 20.910156 C 33.253906 21.046875 33.464844 21.308594 33.714844 21.378906 L 34.007812 21.378906 C 34.453125 21.476562 34.953125 21.410156 35.371094 21.53125 C 36.109375 21.769531 36.777344 22.113281 37.375 22.488281 C 42.117188 24.863281 44.828125 29.992188 44.113281 35.25 C 43.398438 40.507812 39.421875 44.726562 34.214844 45.75 C 29.011719 46.773438 23.730469 44.371094 21.082031 39.777344 C 18.429688 35.179688 18.996094 29.40625 22.488281 25.414062 C 22.65625 25.734375 22.730469 26.027344 22.882812 26.363281 C 23.171875 27.050781 23.535156 27.742188 23.828125 28.410156 C 24.121094 29.066406 24.402344 29.734375 24.820312 30.277344 C 25.027344 30.570312 25.867188 30.722656 26.242188 30.871094 C 26.519531 30.996094 26.949219 31.113281 27.199219 31.265625 C 27.679688 31.554688 28.144531 31.890625 28.597656 32.210938 C 28.824219 32.367188 29.519531 32.714844 29.558594 32.996094 Z M 48.382812 23.566406 "/>
</g>
</svg>
