<?xml version="1.0" encoding="UTF-8"?>
<svg xmlns="http://www.w3.org/2000/svg" xmlns:xlink="http://www.w3.org/1999/xlink" width="50px" height="px" viewBox="0 0 50 50" version="1.1">
<g id="surface1">
<path style=" stroke:none;fill-rule:nonzero;fill:rgb(0%,0%,0%);fill-opacity:1;" d="M 35.253906 0 L 40.71875 0 L 40.71875 37.714844 L 35.253906 37.714844 Z M 26.660156 26.957031 L 32.121094 26.957031 L 32.121094 32.3125 L 26.660156 32.3125 Z M 26.660156 12.296875 L 32.121094 12.296875 L 32.121094 23.644531 L 26.660156 23.644531 Z M 26.660156 35.625 L 32.121094 35.625 L 32.121094 46.972656 L 26.660156 46.972656 Z M 9.285156 12.285156 L 14.746094 12.285156 L 14.746094 50 L 9.28125 50 Z M 18.058594 17.613281 L 23.523438 17.613281 L 23.523438 22.96875 L 18.0625 22.96875 Z M 18.058594 26.261719 L 23.523438 26.261719 L 23.523438 37.609375 L 18.0625 37.609375 Z M 18.058594 2.957031 L 23.523438 2.957031 L 23.523438 14.300781 L 18.0625 14.300781 Z M 18.058594 2.957031 "/>
</g>
</svg>
