<?xml version="1.0" encoding="UTF-8"?>
<svg xmlns="http://www.w3.org/2000/svg" xmlns:xlink="http://www.w3.org/1999/xlink" width="50px" height="px" viewBox="0 0 50 50" version="1.1">
<g id="surface1">
<path style=" stroke:none;fill-rule:nonzero;fill:rgb(0%,0%,0%);fill-opacity:1;" d="M 14.605469 21.265625 L 12.636719 21.265625 L 11.566406 26.78125 L 13.308594 26.78125 C 14.46875 26.78125 15.332031 26.5625 15.898438 26.128906 C 16.464844 25.691406 16.847656 24.960938 17.042969 23.941406 C 17.234375 22.960938 17.148438 22.269531 16.785156 21.867188 C 16.421875 21.464844 15.695312 21.265625 14.605469 21.265625 Z M 25 11.851562 C 11.195312 11.851562 0 17.738281 0 25 C 0 32.261719 11.195312 38.152344 25 38.152344 C 38.804688 38.152344 50 32.261719 50 25 C 50 17.738281 38.804688 11.851562 25 11.851562 Z M 18.207031 27.371094 C 17.664062 27.894531 17.011719 28.285156 16.296875 28.519531 C 15.597656 28.746094 14.703125 28.863281 13.621094 28.863281 L 11.160156 28.863281 L 10.480469 32.363281 L 7.609375 32.363281 L 10.171875 19.183594 L 15.691406 19.183594 C 17.351562 19.183594 18.5625 19.621094 19.324219 20.492188 C 20.085938 21.363281 20.316406 22.582031 20.011719 24.144531 C 19.894531 24.761719 19.679688 25.359375 19.378906 25.910156 C 19.078125 26.441406 18.691406 26.929688 18.207031 27.371094 Z M 26.589844 28.863281 L 27.722656 23.03125 C 27.855469 22.367188 27.804688 21.914062 27.582031 21.675781 C 27.359375 21.433594 26.882812 21.3125 26.148438 21.3125 L 23.875 21.3125 L 22.410156 28.863281 L 19.558594 28.863281 L 22.121094 15.683594 L 24.96875 15.683594 L 24.289062 19.1875 L 26.824219 19.1875 C 28.421875 19.1875 29.523438 19.464844 30.128906 20.023438 C 30.734375 20.578125 30.917969 21.480469 30.675781 22.730469 L 29.484375 28.863281 Z M 42.417969 24.144531 C 42.304688 24.761719 42.089844 25.359375 41.785156 25.910156 C 41.484375 26.441406 41.097656 26.929688 40.613281 27.371094 C 40.070312 27.890625 39.417969 28.285156 38.703125 28.519531 C 38.003906 28.746094 37.109375 28.863281 36.023438 28.863281 L 33.566406 28.863281 L 32.886719 32.367188 L 30.015625 32.367188 L 32.578125 19.1875 L 38.097656 19.1875 C 39.757812 19.1875 40.964844 19.621094 41.730469 20.496094 C 42.492188 21.363281 42.722656 22.582031 42.417969 24.144531 Z M 37.011719 21.265625 L 35.046875 21.265625 L 33.972656 26.78125 L 35.71875 26.78125 C 36.878906 26.78125 37.742188 26.5625 38.304688 26.128906 C 38.871094 25.691406 39.253906 24.960938 39.453125 23.941406 C 39.644531 22.960938 39.554688 22.269531 39.195312 21.867188 C 38.832031 21.464844 38.101562 21.265625 37.011719 21.265625 Z M 37.011719 21.265625 "/>
</g>
</svg>
