<?xml version="1.0" encoding="UTF-8"?>
<svg xmlns="http://www.w3.org/2000/svg" xmlns:xlink="http://www.w3.org/1999/xlink" width="50px" height="px" viewBox="0 0 50 50" version="1.1">
<g id="surface1">
<path style=" stroke:none;fill-rule:nonzero;fill:rgb(0%,0%,0%);fill-opacity:1;" d="M 49.082031 30.671875 C 49.054688 30.585938 49.015625 30.5 48.964844 30.425781 C 48.675781 29.875 47.972656 29.710938 46.867188 29.941406 C 43.421875 30.652344 42.089844 30.214844 41.605469 29.902344 C 44.398438 25.632812 46.699219 20.480469 47.941406 15.671875 C 48.503906 13.484375 49.601562 8.332031 48.195312 5.816406 C 48.105469 5.644531 48 5.480469 47.878906 5.324219 C 45.195312 1.894531 41.25 0.0507812 36.480469 0 C 33.363281 -0.03125 30.707031 0.722656 29.988281 1 C 29.628906 0.933594 29.273438 0.875 28.914062 0.828125 C 28.011719 0.667969 27.097656 0.578125 26.179688 0.5625 C 23.71875 0.523438 21.589844 1.113281 19.828125 2.316406 C 18.039062 1.644531 9.851562 -1.113281 4.78125 2.480469 C 1.949219 4.484375 0.644531 8.070312 0.894531 13.132812 C 0.980469 14.839844 1.953125 20.078125 3.484375 25.101562 C 4.441406 28.238281 5.441406 30.730469 6.46875 32.5625 C 7.621094 34.632812 8.816406 35.882812 10.042969 36.289062 C 10.972656 36.601562 12.402344 36.589844 13.914062 34.773438 C 15.582031 32.765625 17.226562 30.96875 17.964844 30.175781 C 18.871094 30.667969 19.851562 30.929688 20.859375 30.960938 C 20.859375 30.964844 20.859375 30.96875 20.859375 30.96875 C 20.6875 31.179688 20.515625 31.390625 20.347656 31.605469 C 19.640625 32.503906 19.492188 32.691406 17.21875 33.15625 C 16.574219 33.289062 14.855469 33.644531 14.832031 34.847656 C 14.828125 35.101562 14.902344 35.328125 15.023438 35.527344 C 15.496094 36.410156 16.945312 36.800781 17.136719 36.847656 C 19.917969 37.542969 22.355469 37.039062 24.160156 35.433594 C 24.125 40.082031 24.324219 44.636719 24.882812 46.03125 C 25.34375 47.183594 26.46875 50 30.027344 50 C 30.546875 50 31.121094 49.9375 31.753906 49.804688 C 35.464844 49.007812 37.078125 47.367188 37.703125 43.75 C 38.015625 41.9375 38.539062 37.761719 38.824219 35.207031 C 38.859375 35.058594 38.898438 34.953125 38.941406 34.921875 C 38.945312 34.921875 39.089844 34.824219 39.832031 34.984375 C 39.863281 34.992188 39.894531 34.996094 39.925781 35 L 40.453125 35.046875 L 40.484375 35.046875 C 42.25 35.128906 44.46875 34.75 45.757812 34.152344 C 47.101562 33.527344 49.519531 32 49.082031 30.671875 Z M 4.941406 24.742188 C 3.390625 19.667969 2.484375 14.566406 2.414062 13.132812 C 2.1875 8.609375 3.28125 5.460938 5.667969 3.773438 C 9.496094 1.070312 15.75 2.648438 18.394531 3.503906 C 18.386719 3.511719 18.378906 3.515625 18.375 3.523438 C 14.15625 7.78125 14.257812 15.058594 14.265625 15.5 C 14.265625 15.671875 14.28125 15.917969 14.300781 16.25 C 14.375 17.472656 14.507812 19.75 14.148438 22.332031 C 13.8125 24.726562 14.550781 27.074219 16.175781 28.765625 C 16.34375 28.941406 16.519531 29.105469 16.699219 29.261719 C 15.976562 30.035156 14.40625 31.746094 12.734375 33.753906 C 11.554688 35.175781 10.738281 34.90625 10.46875 34.816406 C 9.652344 34.542969 8.773438 33.59375 7.886719 32.0625 C 6.890625 30.3125 5.882812 27.828125 4.941406 24.742188 Z M 17.453125 35.339844 C 17.097656 35.25 16.773438 35.105469 16.554688 34.972656 C 16.738281 34.890625 17.046875 34.785156 17.5625 34.679688 C 20.234375 34.128906 20.648438 33.738281 21.550781 32.59375 C 21.753906 32.332031 21.988281 32.035156 22.3125 31.671875 C 22.382812 31.59375 22.4375 31.5 22.46875 31.402344 C 22.824219 31.085938 23.035156 31.171875 23.378906 31.316406 C 23.703125 31.449219 24.019531 31.855469 24.148438 32.304688 C 24.207031 32.515625 24.277344 32.917969 24.054688 33.230469 C 22.167969 35.867188 19.425781 35.832031 17.453125 35.339844 Z M 21.816406 27.03125 L 21.707031 27.328125 C 21.429688 28.070312 21.171875 28.761719 21.011719 29.414062 C 19.621094 29.410156 18.269531 28.816406 17.242188 27.746094 C 15.933594 26.378906 15.339844 24.480469 15.609375 22.535156 C 15.992188 19.808594 15.851562 17.4375 15.777344 16.164062 C 15.765625 15.984375 15.753906 15.828125 15.75 15.703125 C 16.367188 15.160156 19.222656 13.628906 21.257812 14.09375 C 22.183594 14.308594 22.75 14.941406 22.988281 16.027344 C 24.203125 21.660156 23.148438 24.007812 22.296875 25.894531 C 22.125 26.285156 21.957031 26.652344 21.816406 27.03125 Z M 37.15625 36.558594 C 37.121094 36.925781 37.082031 37.34375 37.03125 37.800781 L 36.726562 38.714844 C 36.699219 38.785156 36.6875 38.859375 36.6875 38.9375 C 36.675781 39.925781 36.574219 40.289062 36.449219 40.75 C 36.316406 41.226562 36.164062 41.765625 36.074219 42.953125 C 35.84375 45.898438 34.246094 47.589844 31.039062 48.277344 C 27.878906 48.953125 27.320312 47.242188 26.828125 45.734375 C 26.777344 45.574219 26.722656 45.417969 26.667969 45.261719 C 26.21875 44.039062 26.269531 42.320312 26.339844 39.9375 C 26.375 38.769531 26.289062 35.976562 25.652344 34.425781 C 25.660156 33.8125 25.671875 33.191406 25.691406 32.566406 C 25.691406 32.488281 25.683594 32.40625 25.660156 32.332031 C 25.640625 32.183594 25.609375 32.039062 25.566406 31.898438 C 25.3125 31.007812 24.691406 30.261719 23.941406 29.949219 C 23.644531 29.828125 23.101562 29.601562 22.449219 29.769531 C 22.585938 29.195312 22.828125 28.546875 23.089844 27.84375 L 23.203125 27.546875 C 23.324219 27.214844 23.480469 26.867188 23.644531 26.503906 C 24.535156 24.527344 25.75 21.824219 24.429688 15.714844 C 23.933594 13.429688 22.285156 12.3125 19.777344 12.570312 C 18.277344 12.726562 16.90625 13.332031 16.21875 13.679688 C 16.082031 13.75 15.945312 13.820312 15.8125 13.898438 C 16.003906 11.589844 16.726562 7.285156 19.425781 4.558594 C 19.628906 4.355469 19.839844 4.164062 20.058594 3.984375 C 20.167969 3.960938 20.273438 3.917969 20.359375 3.847656 C 21.929688 2.660156 23.890625 2.078125 26.199219 2.113281 C 27.050781 2.128906 27.867188 2.1875 28.644531 2.285156 C 32.683594 3.023438 35.402344 5.296875 37.050781 7.246094 C 38.75 9.253906 39.667969 11.273438 40.035156 12.359375 C 37.277344 12.082031 35.402344 12.625 34.453125 13.984375 C 32.382812 16.941406 35.582031 22.675781 37.121094 25.433594 C 37.402344 25.941406 37.644531 26.375 37.722656 26.5625 C 38.222656 27.777344 38.871094 28.585938 39.34375 29.175781 C 39.488281 29.359375 39.628906 29.535156 39.738281 29.6875 C 38.902344 29.929688 37.402344 30.484375 37.539062 33.265625 C 37.511719 33.589844 37.449219 34.195312 37.363281 34.960938 C 37.269531 35.394531 37.21875 35.921875 37.15625 36.558594 Z M 39.011719 33.179688 C 38.929688 31.449219 39.574219 31.269531 40.257812 31.074219 C 40.351562 31.050781 40.445312 31.023438 40.539062 30.992188 C 40.625 31.070312 40.71875 31.140625 40.816406 31.207031 C 42.003906 31.992188 44.113281 32.082031 47.082031 31.484375 C 46.660156 31.855469 46 32.316406 45.09375 32.738281 C 44.242188 33.136719 42.8125 33.433594 41.457031 33.496094 C 39.957031 33.566406 39.191406 33.328125 39.011719 33.179688 Z M 40.199219 13.867188 C 40.1875 14.597656 40.085938 15.261719 39.980469 15.953125 C 39.867188 16.699219 39.746094 17.46875 39.71875 18.402344 C 39.6875 19.3125 39.800781 20.257812 39.910156 21.175781 C 40.132812 23.023438 40.359375 24.925781 39.480469 26.800781 C 39.332031 26.542969 39.203125 26.273438 39.089844 26 C 38.976562 25.734375 38.738281 25.304688 38.410156 24.714844 C 37.128906 22.414062 34.125 17.027344 35.660156 14.832031 C 36.453125 13.699219 38.457031 13.652344 40.199219 13.867188 Z M 40.675781 28.476562 C 40.617188 28.402344 40.558594 28.328125 40.496094 28.253906 L 40.425781 28.160156 C 41.9375 25.664062 41.640625 23.191406 41.378906 21 C 41.269531 20.097656 41.167969 19.25 41.191406 18.453125 C 41.21875 17.605469 41.332031 16.878906 41.441406 16.179688 C 41.574219 15.3125 41.707031 14.417969 41.671875 13.363281 C 41.699219 13.253906 41.710938 13.125 41.695312 12.96875 C 41.601562 11.957031 40.445312 8.929688 38.09375 6.191406 C 36.828125 4.71875 34.988281 3.070312 32.492188 1.941406 C 33.585938 1.71875 35.058594 1.519531 36.707031 1.554688 C 40.984375 1.648438 44.363281 3.25 46.757812 6.308594 C 46.808594 6.375 46.855469 6.445312 46.898438 6.519531 C 48.40625 9.34375 46.324219 19.59375 40.675781 28.476562 Z M 22.308594 15.734375 C 22.253906 16.109375 21.664062 16.617188 21.015625 16.617188 C 20.957031 16.617188 20.902344 16.613281 20.84375 16.605469 C 20.453125 16.550781 20.0625 16.304688 19.792969 15.945312 C 19.695312 15.820312 19.539062 15.578125 19.570312 15.355469 C 19.582031 15.269531 19.625 15.148438 19.765625 15.042969 C 20.011719 14.859375 20.496094 14.789062 21.035156 14.863281 C 21.691406 14.957031 22.371094 15.269531 22.308594 15.734375 Z M 38.828125 14.878906 C 38.851562 15.042969 38.726562 15.296875 38.511719 15.523438 C 38.367188 15.675781 38.070312 15.933594 37.660156 15.988281 C 37.609375 15.996094 37.558594 16 37.503906 16 C 36.894531 16 36.375 15.511719 36.335938 15.226562 C 36.285156 14.859375 36.886719 14.578125 37.503906 14.492188 C 38.125 14.40625 38.777344 14.511719 38.828125 14.878906 Z M 38.828125 14.878906 "/>
</g>
</svg>
