<?xml version="1.0" encoding="UTF-8"?>
<svg xmlns="http://www.w3.org/2000/svg" xmlns:xlink="http://www.w3.org/1999/xlink" width="50px" height="px" viewBox="0 0 50 50" version="1.1">
<g id="surface1">
<path style=" stroke:none;fill-rule:nonzero;fill:rgb(0%,0%,0%);fill-opacity:1;" d="M 29.6875 0.375 L 31.5625 0.792969 L 33.082031 1.332031 L 34.3125 1.957031 L 35.25 2.625 L 35.957031 3.332031 L 36.480469 4.042969 L 36.8125 4.730469 L 37.019531 5.355469 L 37.105469 5.894531 L 37.144531 6.3125 L 37.125 6.582031 L 37.125 17.707031 L 37.019531 19.019531 L 36.75 20.167969 L 36.3125 21.125 L 35.769531 21.917969 L 35.144531 22.5625 L 34.457031 23.082031 L 33.730469 23.480469 L 33 23.769531 L 32.3125 23.980469 L 31.6875 24.125 L 31.144531 24.207031 L 30.707031 24.25 L 18.269531 24.25 L 16.832031 24.355469 L 15.605469 24.644531 L 14.5625 25.105469 L 13.707031 25.667969 L 13.019531 26.332031 L 12.457031 27.0625 L 12.042969 27.8125 L 11.730469 28.582031 L 11.519531 29.3125 L 11.375 29.980469 L 11.292969 30.542969 L 11.25 30.980469 L 11.25 37.355469 L 6.605469 37.355469 L 6.167969 37.292969 L 5.582031 37.144531 L 4.917969 36.894531 L 4.1875 36.519531 L 3.4375 35.980469 L 2.6875 35.230469 L 1.957031 34.269531 L 1.292969 33.042969 L 0.707031 31.519531 L 0.269531 29.6875 L -0.0195312 27.5 L -0.125 24.9375 L 0 22.394531 L 0.332031 20.230469 L 0.832031 18.417969 L 1.5 16.9375 L 2.25 15.75 L 3.082031 14.832031 L 3.957031 14.144531 L 4.832031 13.644531 L 5.667969 13.3125 L 6.417969 13.105469 L 7.082031 13 L 7.582031 12.980469 L 7.917969 12.980469 L 8.042969 13 L 25.042969 13 L 25.042969 11.269531 L 12.875 11.269531 L 12.855469 5.542969 L 12.8125 4.769531 L 12.917969 4.0625 L 13.144531 3.417969 L 13.5 2.832031 L 14.019531 2.292969 L 14.667969 1.8125 L 15.457031 1.394531 L 16.375 1.019531 L 17.4375 0.707031 L 18.644531 0.457031 L 19.980469 0.25 L 21.457031 0.125 L 23.0625 0.0429688 L 24.8125 0 L 27.457031 0.105469 Z M 16.5625 4.5 L 16.082031 5.1875 L 15.917969 6.042969 L 16.082031 6.894531 L 16.5625 7.605469 L 17.25 8.0625 L 18.105469 8.25 L 18.957031 8.0625 L 19.644531 7.605469 L 20.125 6.894531 L 20.292969 6.042969 L 20.125 5.1875 L 19.644531 4.5 L 18.957031 4.042969 L 18.105469 3.855469 L 17.25 4.042969 Z M 43.832031 12.730469 L 44.417969 12.855469 L 45.082031 13.105469 L 45.8125 13.480469 L 46.5625 14.042969 L 47.3125 14.769531 L 48.042969 15.75 L 48.707031 16.980469 L 49.292969 18.5 L 49.730469 20.332031 L 50.019531 22.5 L 50.125 25.0625 L 50 27.625 L 49.667969 29.792969 L 49.167969 31.582031 L 48.5 33.0625 L 47.75 34.25 L 46.917969 35.1875 L 46.042969 35.875 L 45.167969 36.375 L 44.332031 36.707031 L 43.582031 36.894531 L 42.917969 37 L 42.417969 37.042969 L 42.082031 37.019531 L 24.957031 37.019531 L 24.957031 38.730469 L 37.125 38.730469 L 37.144531 44.480469 L 37.1875 45.230469 L 37.082031 45.9375 L 36.855469 46.582031 L 36.5 47.1875 L 35.980469 47.707031 L 35.332031 48.207031 L 34.542969 48.625 L 33.625 48.980469 L 32.5625 49.292969 L 31.355469 49.5625 L 30.019531 49.75 L 28.542969 49.894531 L 26.9375 49.980469 L 25.1875 50 L 22.542969 49.917969 L 20.3125 49.625 L 18.4375 49.207031 L 16.917969 48.6875 L 15.6875 48.0625 L 14.75 47.375 L 14.042969 46.667969 L 13.519531 45.957031 L 13.1875 45.269531 L 12.980469 44.644531 L 12.894531 44.125 L 12.855469 43.707031 L 12.875 43.4375 L 12.875 32.3125 L 12.980469 30.980469 L 13.25 29.855469 L 13.6875 28.894531 L 14.230469 28.105469 L 14.855469 27.4375 L 15.542969 26.9375 L 16.269531 26.519531 L 17 26.230469 L 17.6875 26.019531 L 18.3125 25.894531 L 18.855469 25.8125 L 19.292969 25.769531 L 19.5625 25.75 L 31.730469 25.75 L 33.167969 25.644531 L 34.394531 25.355469 L 35.4375 24.917969 L 36.292969 24.332031 L 36.980469 23.667969 L 37.542969 22.9375 L 37.957031 22.1875 L 38.269531 21.4375 L 38.480469 20.707031 L 38.625 20.042969 L 38.707031 19.457031 L 38.75 19.019531 L 38.75 12.644531 L 43.105469 12.644531 L 43.394531 12.667969 Z M 30.355469 42.417969 L 29.875 43.105469 L 29.707031 43.957031 L 29.875 44.8125 L 30.355469 45.5 L 31.042969 45.980469 L 31.894531 46.144531 L 32.75 45.980469 L 33.4375 45.5 L 33.917969 44.8125 L 34.082031 43.957031 L 33.917969 43.105469 L 33.4375 42.417969 L 32.75 41.9375 L 31.894531 41.769531 L 31.042969 41.9375 Z M 30.355469 42.417969 "/>
</g>
</svg>
