<?xml version="1.0" encoding="UTF-8"?>
<svg xmlns="http://www.w3.org/2000/svg" xmlns:xlink="http://www.w3.org/1999/xlink" width="50px" height="50px" viewBox="0 0 50 50" version="1.1">
<g id="surface1">
<path style=" stroke:none;fill-rule:nonzero;fill:rgb(0%,0%,0%);fill-opacity:1;" d="M 48.277344 7.226562 L 32.828125 24.5625 C 32.738281 24.65625 32.617188 24.710938 32.484375 24.710938 C 32.355469 24.710938 32.230469 24.65625 32.140625 24.5625 L 24.253906 16.4375 C 24.117188 16.265625 24.117188 16.023438 24.253906 15.851562 L 26.816406 12.5 C 26.90625 12.378906 27.046875 12.308594 27.199219 12.308594 C 27.347656 12.308594 27.488281 12.378906 27.578125 12.5 L 31.964844 17.386719 C 32.058594 17.488281 32.1875 17.546875 32.324219 17.546875 C 32.460938 17.546875 32.589844 17.488281 32.679688 17.386719 L 45.054688 0.523438 C 45.121094 0.425781 45.128906 0.292969 45.074219 0.1875 C 45.019531 0.078125 44.914062 0.0078125 44.792969 0 L 1.492188 0 C 1.292969 0 1.128906 0.164062 1.128906 0.363281 L 1.128906 49.636719 C 1.128906 49.835938 1.292969 50 1.492188 50 L 48.503906 50 C 48.703125 50 48.867188 49.835938 48.867188 49.636719 L 48.867188 7.5 C 48.890625 7.351562 48.8125 7.207031 48.675781 7.140625 C 48.539062 7.078125 48.378906 7.113281 48.277344 7.226562 Z M 14.441406 44.511719 C 11.34375 44.652344 8.316406 43.574219 6.003906 41.511719 C 5.855469 41.339844 5.855469 41.085938 6.003906 40.914062 L 7.839844 38.335938 C 7.917969 38.230469 8.039062 38.160156 8.167969 38.144531 C 8.300781 38.132812 8.429688 38.171875 8.527344 38.261719 C 10.207031 39.820312 12.414062 40.683594 14.703125 40.675781 C 17.117188 40.675781 18.292969 39.5625 18.292969 38.386719 C 18.292969 34.738281 6.417969 37.238281 6.417969 29.476562 C 6.417969 26.039062 9.390625 23.226562 14.242188 23.226562 C 17.042969 23.125 19.789062 24.042969 21.964844 25.8125 C 22.128906 25.988281 22.128906 26.261719 21.964844 26.4375 L 20.078125 28.9375 C 20.003906 29.039062 19.890625 29.101562 19.765625 29.117188 C 19.640625 29.128906 19.511719 29.09375 19.417969 29.011719 C 17.816406 27.734375 15.828125 27.046875 13.777344 27.0625 C 11.890625 27.0625 10.839844 27.898438 10.839844 29.136719 C 10.839844 32.414062 22.691406 30.226562 22.691406 37.886719 C 22.703125 41.664062 20.015625 44.511719 14.441406 44.511719 Z M 40.355469 37.363281 C 40.355469 37.582031 40.175781 37.761719 39.953125 37.761719 L 29.117188 37.761719 C 29.082031 37.761719 29.046875 37.777344 29.023438 37.804688 C 29 37.828125 28.988281 37.863281 28.992188 37.898438 C 29.359375 39.996094 31.257812 41.472656 33.378906 41.3125 C 34.726562 41.277344 36.03125 40.839844 37.128906 40.0625 C 37.214844 39.996094 37.328125 39.964844 37.433594 39.980469 C 37.542969 40 37.640625 40.058594 37.703125 40.148438 L 39.027344 42.085938 C 39.148438 42.265625 39.109375 42.503906 38.941406 42.636719 C 37.195312 43.910156 35.078125 44.566406 32.917969 44.511719 C 30.730469 44.632812 28.597656 43.828125 27.039062 42.292969 C 25.480469 40.757812 24.640625 38.636719 24.730469 36.449219 C 24.667969 34.320312 25.480469 32.253906 26.980469 30.738281 C 28.480469 29.222656 30.535156 28.386719 32.667969 28.425781 C 37.242188 28.425781 40.339844 31.851562 40.339844 36.863281 Z M 32.679688 31.636719 C 30.773438 31.578125 29.144531 32.992188 28.929688 34.886719 C 28.925781 34.921875 28.9375 34.957031 28.960938 34.984375 C 28.984375 35.011719 29.019531 35.023438 29.054688 35.023438 L 36.328125 35.023438 C 36.363281 35.023438 36.398438 35.011719 36.421875 34.984375 C 36.445312 34.957031 36.457031 34.921875 36.453125 34.886719 C 36.300781 32.953125 34.617188 31.5 32.679688 31.636719 Z M 32.679688 31.636719 "/>
</g>
</svg>
