<?xml version="1.0" encoding="UTF-8"?>
<svg xmlns="http://www.w3.org/2000/svg" xmlns:xlink="http://www.w3.org/1999/xlink" width="50px" height="px" viewBox="0 0 50 50" version="1.1">
<g id="surface1">
<path style=" stroke:none;fill-rule:nonzero;fill:rgb(0%,0%,0%);fill-opacity:1;" d="M 24.867188 0.0273438 C 25.128906 0.015625 25.390625 0.00390625 25.65625 0 C 8.921875 3.238281 1.183594 12.070312 0.191406 22.085938 C -1.039062 31.5625 3.75 41.429688 11.949219 46.324219 C 19.992188 51.363281 30.890625 51.15625 38.769531 45.859375 C 45.84375 41.265625 50.25 32.886719 49.988281 24.433594 C 49.867188 16.066406 45.175781 7.941406 37.992188 3.644531 C 34.070312 1.222656 29.464844 0.0117188 24.867188 0.0273438 Z M 24.734375 3.5625 C 35.039062 3.546875 45.128906 11.507812 46.15625 22.15625 C 48.125 33.945312 38.335938 45.929688 26.390625 46.277344 C 15.027344 47.410156 4.046875 37.777344 3.722656 26.367188 C 2.875 17.132812 8.964844 7.964844 17.679688 4.910156 C 24.457031 11.046875 25.894531 21.144531 21.105469 28.933594 C 16.3125 36.71875 6.652344 39.984375 -1.882812 36.703125 C -10.414062 33.417969 -15.394531 24.519531 -13.730469 15.53125 C -12.066406 6.539062 -4.230469 0.0117188 4.910156 0 Z M 35.339844 10.28125 C 29.742188 14.625 24.382812 19.253906 18.90625 23.730469 C 21.414062 23.765625 23.933594 23.765625 26.449219 23.753906 C 29.386719 19.242188 32.40625 14.792969 35.339844 10.28125 Z M 23.539062 26.226562 C 20.601562 30.738281 17.582031 35.203125 14.644531 39.710938 C 20.253906 35.378906 25.59375 30.710938 31.105469 26.261719 C 30.878906 17.511719 30.867188 8.753906 31.070312 0 Z M 23.539062 26.226562 "/>
</g>
</svg>
