<?xml version="1.0" encoding="UTF-8"?>
<svg xmlns="http://www.w3.org/2000/svg" xmlns:xlink="http://www.w3.org/1999/xlink" width="50px" height="px" viewBox="0 0 50 50" version="1.1">
<g id="surface1">
<path style=" stroke:none;fill-rule:nonzero;fill:rgb(0%,0%,0%);fill-opacity:1;" d="M 45.164062 1.085938 C 43.011719 -0.832031 40.414062 -0.0585938 37.84375 2.21875 C 37.449219 2.574219 37.066406 2.945312 36.703125 3.332031 C 32.308594 7.992188 28.234375 16.625 26.964844 23.214844 C 27.460938 24.214844 27.847656 25.492188 28.101562 26.46875 C 28.226562 26.953125 28.339844 27.441406 28.441406 27.933594 C 28.441406 27.933594 28.402344 27.785156 28.242188 27.316406 L 28.136719 27.011719 C 28.117188 26.957031 28.09375 26.902344 28.070312 26.847656 C 27.78125 26.179688 26.988281 24.773438 26.640625 24.160156 C 26.339844 25.042969 26.078125 25.863281 25.855469 26.609375 C 26.863281 28.453125 27.476562 31.609375 27.476562 31.609375 C 27.476562 31.609375 27.425781 31.402344 27.171875 30.691406 C 26.949219 30.058594 25.828125 28.097656 25.5625 27.640625 C 25.109375 29.316406 24.929688 30.445312 25.089844 30.71875 C 25.410156 31.253906 25.707031 32.171875 25.972656 33.191406 C 26.566406 35.480469 26.980469 38.273438 26.980469 38.273438 L 27.015625 38.738281 C 26.9375 40.648438 26.976562 42.558594 27.132812 44.464844 C 27.332031 46.851562 27.703125 48.902344 28.175781 50 L 28.496094 49.824219 C 27.800781 47.664062 27.519531 44.828125 27.644531 41.558594 C 27.832031 36.566406 28.980469 30.539062 31.105469 24.261719 C 34.695312 14.78125 39.671875 7.175781 44.230469 3.542969 C 40.078125 7.292969 34.453125 19.4375 32.769531 23.933594 C 30.886719 28.964844 29.550781 33.691406 28.746094 38.21875 C 30.136719 33.976562 34.625 32.152344 34.625 32.152344 C 34.625 32.152344 36.828125 29.433594 39.398438 25.554688 C 37.859375 25.910156 35.328125 26.511719 34.480469 26.867188 C 33.230469 27.390625 32.890625 27.570312 32.890625 27.570312 C 32.890625 27.570312 36.945312 25.101562 40.417969 23.984375 C 45.199219 16.457031 50.40625 5.765625 45.164062 1.085938 M 6.46875 2.214844 C 4.359375 2.226562 2.652344 3.933594 2.644531 6.042969 L 2.644531 40.640625 C 2.652344 42.75 4.359375 44.457031 6.46875 44.460938 L 26.089844 44.460938 C 25.941406 42.585938 25.90625 40.703125 25.980469 38.824219 C 25.96875 38.695312 25.957031 38.527344 25.949219 38.40625 C 25.695312 36.742188 25.363281 35.085938 24.960938 33.453125 C 24.710938 32.472656 24.390625 31.582031 24.195312 31.25 C 23.953125 30.839844 23.988281 30.605469 23.992188 30.351562 C 23.992188 30.101562 24.023438 29.839844 24.070312 29.546875 C 24.191406 28.8125 24.355469 28.085938 24.554688 27.367188 L 25.007812 27.308594 C 24.972656 27.238281 24.980469 27.175781 24.945312 27.109375 L 24.859375 26.316406 C 25.109375 25.480469 25.375 24.652344 25.652344 23.828125 L 26.070312 23.789062 C 26.054688 23.753906 26.050781 23.707031 26.035156 23.675781 L 25.945312 23.019531 C 27.257812 16.183594 31.332031 7.511719 35.945312 2.621094 C 36.082031 2.476562 36.222656 2.355469 36.355469 2.214844 Z M 6.46875 2.214844 "/>
</g>
</svg>
