<?xml version="1.0" encoding="UTF-8"?>
<svg xmlns="http://www.w3.org/2000/svg" xmlns:xlink="http://www.w3.org/1999/xlink" width="50px" height="px" viewBox="0 0 50 50" version="1.1">
<g id="surface1">
<path style=" stroke:none;fill-rule:nonzero;fill:rgb(0%,0%,0%);fill-opacity:1;" d="M 43.652344 0.0078125 C 43.527344 -0.0078125 43.398438 0.00390625 43.277344 0.0429688 L 6.71875 11.636719 C 6.355469 11.75 6.046875 12.082031 5.882812 12.464844 C 5.796875 12.601562 5.753906 12.761719 5.757812 12.921875 L 5.757812 24.851562 C 5.753906 25.011719 5.796875 25.171875 5.882812 25.308594 C 6.046875 25.691406 6.355469 26.019531 6.71875 26.136719 L 22.246094 31.0625 L 6.71875 35.984375 C 6.1875 36.152344 5.753906 36.765625 5.753906 37.351562 L 5.753906 49.199219 C 5.753906 49.789062 6.1875 50.125 6.71875 49.957031 L 43.28125 38.363281 C 43.773438 38.207031 44.167969 37.664062 44.222656 37.113281 C 44.230469 37.066406 44.25 37.027344 44.25 36.976562 L 44.25 25.125 C 44.25 24.539062 43.816406 23.925781 43.285156 23.757812 L 27.917969 18.886719 L 43.28125 14.011719 C 43.8125 13.847656 44.242188 13.230469 44.242188 12.644531 L 44.242188 0.800781 C 44.242188 0.359375 44 0.0585938 43.652344 0.0078125 Z M 43.652344 0.0078125 "/>
</g>
</svg>
