<?xml version="1.0" encoding="UTF-8"?>
<svg xmlns="http://www.w3.org/2000/svg" xmlns:xlink="http://www.w3.org/1999/xlink" width="50px" height="px" viewBox="0 0 50 50" version="1.1">
<g id="surface1">
<path style=" stroke:none;fill-rule:nonzero;fill:rgb(0%,0%,0%);fill-opacity:1;" d="M 24.996094 0 C 24.589844 0 24.179688 0.105469 23.816406 0.320312 L 4.222656 11.625 C 1.011719 11.058594 -1.132812 8 -0.566406 4.789062 C -0.00390625 1.578125 3.058594 -0.566406 6.269531 0 L 6.269531 36.3125 C 6.269531 37.160156 6.71875 37.941406 7.453125 38.363281 L 19.507812 45.328125 L 19.507812 30.027344 L 9.890625 30.027344 L 9.890625 25.980469 L 27.269531 25.980469 L 27.269531 30.027344 L 20.886719 30.027344 L 20.886719 47.992188 L 23.816406 49.683594 C 24.546875 50.105469 25.449219 50.105469 26.179688 49.683594 L 31.007812 46.894531 C 18.058594 47.707031 6.902344 37.871094 6.089844 24.917969 C 5.277344 11.96875 15.113281 0.8125 28.066406 0 L 31.816406 -2.171875 C 32.570312 -0.941406 33.496094 0.0390625 34.898438 0.433594 L 39.429688 -2.183594 C 39.164062 -3.367188 37.976562 -3.898438 36.128906 -4.703125 L 34.976562 -5.199219 C 31.652344 -6.617188 29.445312 -8.390625 29.445312 -12.144531 C 29.445312 -15.601562 32.082031 -18.234375 36.195312 -18.234375 C 39.125 -18.234375 41.230469 -17.210938 42.746094 -14.546875 L 39.15625 -12.242188 C 38.367188 -13.660156 37.511719 -14.21875 36.195312 -14.21875 C 34.847656 -14.21875 33.988281 -13.363281 33.988281 -12.242188 C 33.988281 -10.863281 34.847656 -10.300781 36.820312 -9.445312 L 37.972656 -8.953125 C 40.757812 -7.757812 42.671875 -6.546875 43.546875 -4.5625 L 45.324219 -5.589844 C 46.058594 -6.011719 46.507812 -6.792969 46.507812 -7.640625 L 46.507812 13.675781 C 46.507812 12.832031 46.058594 12.046875 45.324219 11.628906 L 26.179688 0.320312 C 26.269531 -3.699219 23.082031 -7.03125 19.0625 -7.117188 C 15.042969 -7.207031 11.714844 -4.019531 11.628906 0 Z M 24.996094 0 "/>
</g>
</svg>
