<?xml version="1.0" encoding="UTF-8"?>
<svg xmlns="http://www.w3.org/2000/svg" xmlns:xlink="http://www.w3.org/1999/xlink" width="50px" height="px" viewBox="0 0 50 50" version="1.1">
<g id="surface1">
<path style=" stroke:none;fill-rule:nonzero;fill:rgb(0%,0%,0%);fill-opacity:1;" d="M 36.6875 0.949219 C 32.765625 0.949219 29.582031 4.128906 29.582031 8.050781 C 29.582031 11.976562 32.765625 15.15625 36.6875 15.15625 C 40.609375 15.15625 43.792969 11.976562 43.792969 8.050781 C 43.792969 4.128906 40.609375 0.949219 36.6875 0.949219 Z M 26.917969 1.667969 C 18.589844 1.617188 10.703125 6.128906 6.558594 13.441406 C 6.738281 13.429688 6.917969 13.425781 7.101562 13.425781 C 9.003906 13.425781 10.867188 13.957031 12.484375 14.960938 C 15.660156 10.371094 20.855469 7.59375 26.433594 7.5 C 26.546875 5.40625 27.300781 3.394531 28.589844 1.738281 C 28.03125 1.695312 27.476562 1.667969 26.917969 1.667969 Z M 46.136719 12.070312 C 45.316406 14.003906 43.921875 15.636719 42.140625 16.75 C 45.03125 22.207031 44.816406 28.789062 41.574219 34.046875 C 43.234375 35.410156 44.425781 37.261719 44.972656 39.339844 C 51.21875 31.460938 51.6875 20.457031 46.136719 12.070312 Z M 7.105469 16.523438 C 3.179688 16.523438 0 19.707031 0 23.628906 C 0 27.550781 3.179688 30.730469 7.105469 30.730469 C 11.027344 30.730469 14.207031 27.550781 14.207031 23.628906 C 14.207031 19.703125 11.027344 16.523438 7.105469 16.523438 Z M 11.328125 32.914062 C 9.425781 33.773438 7.308594 34.035156 5.253906 33.660156 C 8.136719 40.789062 14.378906 46.019531 21.902344 47.613281 C 23.558594 47.96875 25.253906 48.140625 26.949219 48.132812 C 25.644531 46.421875 24.914062 44.34375 24.867188 42.195312 C 24.28125 42.128906 23.699219 42.035156 23.125 41.910156 C 18.039062 40.835938 13.707031 37.53125 11.328125 32.910156 Z M 35.085938 34.847656 C 31.164062 34.847656 27.984375 38.027344 27.984375 41.949219 C 27.984375 45.875 31.164062 49.054688 35.085938 49.054688 C 39.011719 49.054688 42.191406 45.875 42.191406 41.949219 C 42.191406 38.027344 39.011719 34.847656 35.085938 34.847656 Z M 35.085938 34.847656 "/>
</g>
</svg>
