<?xml version="1.0" encoding="UTF-8"?>
<svg xmlns="http://www.w3.org/2000/svg" xmlns:xlink="http://www.w3.org/1999/xlink" width="50px" height="px" viewBox="0 0 50 50" version="1.1">
<defs>
<clipPath id="clip1">
  <path d="M 1.878906 1.878906 L 47.878906 1.878906 L 47.878906 47.878906 L 1.878906 47.878906 Z M 1.878906 1.878906 "/>
</clipPath>
</defs>
<g id="surface1">
<g clip-path="url(#clip1)" clip-rule="nonzero">
<path style=" stroke:none;fill-rule:nonzero;fill:rgb(0%,0%,0%);fill-opacity:1;" d="M 15.46875 1.878906 C 7.972656 1.878906 1.878906 7.972656 1.878906 15.46875 L 1.878906 34.285156 C 1.878906 41.777344 7.972656 47.878906 15.46875 47.878906 L 34.285156 47.878906 C 41.777344 47.878906 47.878906 41.777344 47.878906 34.285156 L 47.878906 15.46875 C 47.878906 7.972656 41.777344 1.878906 34.285156 1.878906 Z M 15.46875 3.96875 L 34.285156 3.96875 C 40.648438 3.96875 45.785156 9.105469 45.785156 15.46875 L 45.785156 34.285156 C 45.785156 40.648438 40.648438 45.785156 34.285156 45.785156 L 15.46875 45.785156 C 9.105469 45.785156 3.96875 40.648438 3.96875 34.285156 L 3.96875 15.46875 C 3.96875 9.105469 9.105469 3.96875 15.46875 3.96875 Z M 37.421875 10.242188 C 37.285156 10.242188 37.148438 10.253906 37.015625 10.28125 C 36.878906 10.308594 36.75 10.347656 36.621094 10.398438 C 36.496094 10.453125 36.375 10.515625 36.261719 10.59375 C 36.144531 10.667969 36.042969 10.753906 35.945312 10.851562 C 35.847656 10.949219 35.761719 11.054688 35.683594 11.167969 C 35.605469 11.285156 35.542969 11.402344 35.492188 11.53125 C 35.4375 11.660156 35.398438 11.789062 35.371094 11.921875 C 35.34375 12.058594 35.332031 12.195312 35.332031 12.332031 C 35.332031 12.46875 35.34375 12.605469 35.371094 12.738281 C 35.398438 12.875 35.4375 13.003906 35.492188 13.132812 C 35.542969 13.257812 35.605469 13.378906 35.683594 13.492188 C 35.761719 13.605469 35.847656 13.714844 35.945312 13.808594 C 36.042969 13.90625 36.144531 13.992188 36.261719 14.070312 C 36.375 14.144531 36.496094 14.210938 36.621094 14.261719 C 36.75 14.316406 36.878906 14.355469 37.015625 14.382812 C 37.148438 14.410156 37.285156 14.421875 37.421875 14.421875 C 37.558594 14.421875 37.695312 14.410156 37.832031 14.382812 C 37.964844 14.355469 38.097656 14.316406 38.222656 14.261719 C 38.347656 14.210938 38.46875 14.144531 38.582031 14.070312 C 38.699219 13.992188 38.804688 13.90625 38.902344 13.808594 C 38.996094 13.714844 39.085938 13.605469 39.160156 13.492188 C 39.238281 13.378906 39.300781 13.257812 39.355469 13.132812 C 39.40625 13.003906 39.445312 12.875 39.472656 12.738281 C 39.5 12.605469 39.511719 12.46875 39.511719 12.332031 C 39.511719 12.195312 39.5 12.058594 39.472656 11.921875 C 39.445312 11.789062 39.40625 11.660156 39.355469 11.53125 C 39.300781 11.402344 39.238281 11.285156 39.160156 11.167969 C 39.085938 11.054688 38.996094 10.949219 38.902344 10.851562 C 38.804688 10.753906 38.699219 10.667969 38.582031 10.59375 C 38.46875 10.515625 38.347656 10.453125 38.222656 10.398438 C 38.097656 10.347656 37.964844 10.308594 37.832031 10.28125 C 37.695312 10.253906 37.558594 10.242188 37.421875 10.242188 Z M 24.878906 13.378906 C 18.539062 13.378906 13.378906 18.539062 13.378906 24.878906 C 13.378906 31.214844 18.539062 36.378906 24.878906 36.378906 C 31.214844 36.378906 36.378906 31.214844 36.378906 24.878906 C 36.378906 18.539062 31.214844 13.378906 24.878906 13.378906 Z M 24.878906 15.46875 C 30.085938 15.46875 34.285156 19.667969 34.285156 24.878906 C 34.285156 30.085938 30.085938 34.285156 24.878906 34.285156 C 19.667969 34.285156 15.46875 30.085938 15.46875 24.878906 C 15.46875 19.667969 19.667969 15.46875 24.878906 15.46875 Z M 24.878906 15.46875 "/>
</g>
</g>
</svg>
